<svg width="17" height="17" viewBox="0 0 17 17" fill="none" xmlns="http://www.w3.org/2000/svg">
<path fill-rule="evenodd" clip-rule="evenodd" d="M8.33333 16.6667C4.40496 16.6667 2.44078 16.6667 1.22039 15.4462C-9.93411e-08 14.2259 0 12.2617 0 8.33333C0 4.40496 -9.93411e-08 2.44078 1.22039 1.22039C2.44078 -9.93411e-08 4.40496 0 8.33333 0C12.2617 0 14.2259 -9.93411e-08 15.4462 1.22039C16.6667 2.44078 16.6667 4.40496 16.6667 8.33333C16.6667 12.2617 16.6667 14.2259 15.4462 15.4462C14.2259 16.6667 12.2617 16.6667 8.33333 16.6667ZM11.6919 5.80806C11.936 6.05213 11.936 6.44787 11.6919 6.69192L7.52525 10.8586C7.28117 11.1027 6.8855 11.1027 6.64139 10.8586L4.97473 9.19192C4.73065 8.94783 4.73065 8.55217 4.97473 8.30808C5.2188 8.064 5.61453 8.064 5.85861 8.30808L7.08333 9.53275L10.8081 5.80806C11.0522 5.56398 11.4478 5.56398 11.6919 5.80806Z" fill="#242424"/>
</svg>
