<svg width="32" height="32" viewBox="0 0 32 32" fill="none" xmlns="http://www.w3.org/2000/svg">
<path d="M31.4627 15.344L29.3173 10.622C28.778 9.43465 27.5867 8.66732 26.2827 8.66732H22V7.33398C22 6.23132 21.1027 5.33398 20 5.33398H2C0.897333 5.33398 0 6.23132 0 7.33398V22.0007C0 23.1033 0.897333 24.0007 2 24.0007H3.36733C3.53533 25.4967 4.79333 26.6673 6.33333 26.6673C7.87333 26.6673 9.13133 25.4967 9.29933 24.0007H22.7C22.868 25.4967 24.126 26.6673 25.666 26.6673C27.206 26.6673 28.464 25.4967 28.632 24.0007H29.9993C31.102 24.0007 31.9993 23.1033 31.9993 22.0007V17.826C31.9993 16.964 31.8193 16.1287 31.4627 15.344ZM29.9933 15.3333H26V12.6667H28.782L29.9933 15.3333ZM26.2827 9.99998C27.0653 9.99998 27.78 10.46 28.1033 11.1727L28.176 11.3333H26C25.2647 11.3333 24.6667 11.9313 24.6667 12.6667V15.3333C24.6667 16.0687 25.2647 16.6667 26 16.6667H30.5147C30.6113 17.0433 30.6667 17.43 30.6667 17.8253V20H22V9.99998H26.2827ZM22.8507 22.6667H22V21.3333H23.804C23.372 21.6787 23.04 22.136 22.8507 22.6667ZM8.196 21.3333H20.6667V22.6667H9.14933C8.96 22.136 8.628 21.6787 8.196 21.3333ZM2 6.66665H20C20.3673 6.66665 20.6667 6.96598 20.6667 7.33332V20H1.33333V7.33332C1.33333 6.96598 1.63267 6.66665 2 6.66665ZM3.51733 22.6667H2C1.63267 22.6667 1.33333 22.3673 1.33333 22V21.3333H4.47067C4.03867 21.6787 3.70667 22.136 3.51733 22.6667ZM6.33333 25.3333C5.41467 25.3333 4.66667 24.5853 4.66667 23.6667C4.66667 22.748 5.41467 22 6.33333 22C7.252 22 8 22.748 8 23.6667C8 24.5853 7.252 25.3333 6.33333 25.3333ZM25.6667 25.3333C24.748 25.3333 24 24.5853 24 23.6667C24 22.748 24.748 22 25.6667 22C26.5853 22 27.3333 22.748 27.3333 23.6667C27.3333 24.5853 26.5853 25.3333 25.6667 25.3333ZM30 22.6667H28.4827C28.2933 22.136 27.9613 21.6787 27.5293 21.3333H30.6667V22C30.6667 22.3673 30.3673 22.6667 30 22.6667Z" fill="white"/>
</svg>
