<svg width="24" height="24" viewBox="0 0 24 24" fill="none" xmlns="http://www.w3.org/2000/svg">
<path d="M18.001 3H17.251V2.25C17.251 2.05109 17.172 1.86032 17.0313 1.71967C16.8907 1.57902 16.6999 1.5 16.501 1.5C16.3021 1.5 16.1113 1.57902 15.9706 1.71967C15.83 1.86032 15.751 2.05109 15.751 2.25V3H12.751V2.25C12.751 2.05109 12.672 1.86032 12.5313 1.71967C12.3907 1.57902 12.1999 1.5 12.001 1.5C11.8021 1.5 11.6113 1.57902 11.4706 1.71967C11.33 1.86032 11.251 2.05109 11.251 2.25V3H8.25098V2.25C8.25098 2.05109 8.17196 1.86032 8.03131 1.71967C7.89065 1.57902 7.69989 1.5 7.50098 1.5C7.30206 1.5 7.1113 1.57902 6.97065 1.71967C6.82999 1.86032 6.75098 2.05109 6.75098 2.25V3H6.00098C5.40424 3 4.83194 3.23705 4.40999 3.65901C3.98803 4.08097 3.75098 4.65326 3.75098 5.25V20.25C3.75098 20.8467 3.98803 21.419 4.40999 21.841C4.83194 22.2629 5.40424 22.5 6.00098 22.5H18.001C18.5977 22.5 19.17 22.2629 19.592 21.841C20.0139 21.419 20.251 20.8467 20.251 20.25V5.25C20.251 4.65326 20.0139 4.08097 19.592 3.65901C19.17 3.23705 18.5977 3 18.001 3ZM18.751 20.25C18.751 20.4489 18.672 20.6397 18.5313 20.7803C18.3907 20.921 18.1999 21 18.001 21H6.00098C5.80206 21 5.6113 20.921 5.47065 20.7803C5.32999 20.6397 5.25098 20.4489 5.25098 20.25V5.25C5.25098 5.05109 5.32999 4.86032 5.47065 4.71967C5.6113 4.57902 5.80206 4.5 6.00098 4.5H18.001C18.1999 4.5 18.3907 4.57902 18.5313 4.71967C18.672 4.86032 18.751 5.05109 18.751 5.25V20.25ZM12.751 15.75C12.751 15.9489 12.672 16.1397 12.5313 16.2803C12.3907 16.421 12.1999 16.5 12.001 16.5H7.50098C7.30206 16.5 7.1113 16.421 6.97065 16.2803C6.82999 16.1397 6.75098 15.9489 6.75098 15.75C6.75098 15.5511 6.82999 15.3603 6.97065 15.2197C7.1113 15.079 7.30206 15 7.50098 15H12.001C12.1999 15 12.3907 15.079 12.5313 15.2197C12.672 15.3603 12.751 15.5511 12.751 15.75ZM17.251 12C17.251 12.1989 17.172 12.3897 17.0313 12.5303C16.8907 12.671 16.6999 12.75 16.501 12.75H7.50098C7.30206 12.75 7.1113 12.671 6.97065 12.5303C6.82999 12.3897 6.75098 12.1989 6.75098 12C6.75098 11.8011 6.82999 11.6103 6.97065 11.4697C7.1113 11.329 7.30206 11.25 7.50098 11.25H16.501C16.6999 11.25 16.8907 11.329 17.0313 11.4697C17.172 11.6103 17.251 11.8011 17.251 12ZM17.251 8.25C17.251 8.44891 17.172 8.63968 17.0313 8.78033C16.8907 8.92098 16.6999 9 16.501 9H7.50098C7.30206 9 7.1113 8.92098 6.97065 8.78033C6.82999 8.63968 6.75098 8.44891 6.75098 8.25C6.75098 8.05109 6.82999 7.86032 6.97065 7.71967C7.1113 7.57902 7.30206 7.5 7.50098 7.5H16.501C16.6999 7.5 16.8907 7.57902 17.0313 7.71967C17.172 7.86032 17.251 8.05109 17.251 8.25Z" fill="#242424"/>
</svg>
