<svg width="24" height="24" viewBox="0 0 24 24" fill="none" xmlns="http://www.w3.org/2000/svg">
<g clip-path="url(#clip0_2025_1947)">
<path d="M24 7.96875C24 6.67641 22.9486 5.625 21.6562 5.625H18.4688V3.28125C18.4688 1.98891 17.4173 0.9375 16.125 0.9375H7.875C6.58266 0.9375 5.53125 1.98891 5.53125 3.28125V5.625H2.34375C1.05141 5.625 0 6.67641 0 7.96875V20.7188C0 22.0111 1.05141 23.0625 2.34375 23.0625H21.6562C22.9486 23.0625 24 22.0111 24 20.7188V7.96875ZM7.875 1.875H16.125C16.8041 1.875 17.3723 2.35889 17.5029 3H6.49706C6.6277 2.35889 7.19588 1.875 7.875 1.875ZM2.34375 6.5625H9.89658C10.1554 6.5625 10.3653 6.35264 10.3653 6.09375C10.3653 5.83486 10.1554 5.625 9.89658 5.625H6.46875V3.9375H17.5312V5.625H14.1153C13.8564 5.625 13.6466 5.83486 13.6466 6.09375C13.6466 6.35264 13.8564 6.5625 14.1153 6.5625H21.6562C22.4317 6.5625 23.0625 7.19334 23.0625 7.96875V11.6134L12 14.9633L0.9375 11.6134V7.96875C0.9375 7.19334 1.56834 6.5625 2.34375 6.5625ZM21.6562 22.125H2.34375C1.56834 22.125 0.9375 21.4942 0.9375 20.7188V12.593L11.8642 15.9017C11.9085 15.9151 11.9543 15.9218 12 15.9218C12.0457 15.9218 12.0915 15.9151 12.1358 15.9017L23.0625 12.593V20.7188C23.0625 21.4942 22.4317 22.125 21.6562 22.125Z" fill="#242424"/>
<path d="M9.75 12.0938H14.25C14.5088 12.0938 14.7188 11.8839 14.7188 11.625V9.375C14.7188 9.11611 14.5088 8.90625 14.25 8.90625H9.75C9.49111 8.90625 9.28125 9.11611 9.28125 9.375V11.625C9.28125 11.8839 9.49111 12.0938 9.75 12.0938ZM10.2188 9.84375H13.7812V11.1562H10.2188V9.84375Z" fill="#242424"/>
<path d="M12.0059 6.5625C12.1291 6.5625 12.2501 6.51234 12.3373 6.42516C12.4244 6.33797 12.4746 6.21703 12.4746 6.09375C12.4746 5.97047 12.4245 5.84953 12.3373 5.76234C12.2501 5.67516 12.1291 5.625 12.0059 5.625C11.8826 5.625 11.7616 5.67516 11.674 5.76234C11.5868 5.84953 11.5371 5.97047 11.5371 6.09375C11.5371 6.21703 11.5868 6.33797 11.674 6.42516C11.7616 6.51234 11.8826 6.5625 12.0059 6.5625Z" fill="#242424"/>
</g>
<defs>
<clipPath id="clip0_2025_1947">
<rect width="24" height="24" fill="white"/>
</clipPath>
</defs>
</svg>
