<svg width="24" height="24" viewBox="0 0 24 24" fill="none" xmlns="http://www.w3.org/2000/svg">
<path d="M8.00008 11H13C13.5522 11 14.0001 10.5522 14.0001 9.99992V6.00008C14.0001 5.44784 13.5525 5 13 5H8.00008C7.44784 5 7 5.4476 7 6.00008V10.0002C7.00024 10.5524 7.44784 11 8.00008 11ZM8.00008 6.00008H13V10.0002H8.00008V6.00008ZM19.5002 4.00016C19.2237 4.00016 19.0002 4.22384 19.0002 4.50008V19.5001C19.0002 20.3271 18.3273 21.0001 17.5002 21.0001H6.00016C5.44888 21.0001 5.00008 20.5518 5.00008 20C5.00008 19.4482 5.44888 18.9999 6.00016 18.9999H16.0002C16.5525 18.9999 17.0003 18.5521 17.0003 17.9998V3.00008C17.0003 2.44784 16.5527 2 16.0002 2H5.00008C4.44784 2 4 2.4476 4 3.00008V20C4 21.1026 4.89688 21.9999 5.99992 21.9999H17.5C18.8788 21.9999 20.0001 20.8789 20.0001 19.4998V4.49984C20.0001 4.2236 19.7766 4.00016 19.5002 4.00016ZM5.00008 3.00008H16V18.0001H6.00016C5.63416 18.0001 5.29552 18.1059 5.00008 18.2782V15.0001V3.00008Z" fill="#242424"/>
</svg>
