<svg width="24" height="24" viewBox="0 0 24 24" fill="none" xmlns="http://www.w3.org/2000/svg">
<g clip-path="url(#clip0_2152_338)">
<path d="M21.0079 9.74413H20.0299C20.0134 5.33038 16.4194 1.74463 12.0012 1.74463C7.58292 1.74463 3.98892 5.33038 3.97242 9.74413H2.99442C1.79892 9.74413 0.826172 10.7169 0.826172 11.9124V15.2124C0.826172 16.4079 1.79892 17.3799 2.99442 17.3799H4.09767C4.77192 17.3799 5.32092 16.8316 5.32092 16.1566V10.7926C5.32092 10.4529 5.32092 10.1139 5.32092 9.77488C5.32092 6.09088 8.31792 3.09463 12.0019 3.09463C15.6859 3.09463 18.6829 6.09163 18.6829 9.77488V10.7926V14.7046V16.1566V16.7236C18.6829 18.1524 17.5204 19.3156 16.0909 19.3156H14.5114C14.2219 18.3976 13.3729 17.7249 12.3597 17.7249H11.6434C10.3939 17.7249 9.37767 18.7411 9.37767 19.9906C9.37767 21.2401 10.3939 22.2564 11.6434 22.2564H12.3597C13.3729 22.2564 14.2219 21.5844 14.5114 20.6656H16.0909C18.0394 20.6656 19.6512 19.2406 19.9662 17.3806H21.0087C22.2042 17.3806 23.1769 16.4086 23.1769 15.2131V11.9131C23.1762 10.7169 22.2034 9.74413 21.0079 9.74413ZM3.97017 16.0299H2.99442C2.54292 16.0299 2.17617 15.6631 2.17617 15.2124V11.9124C2.17617 11.4609 2.54292 11.0941 2.99442 11.0941H3.97092V16.0299H3.97017ZM12.3597 20.9064H11.6434C11.1387 20.9064 10.7277 20.4954 10.7277 19.9906C10.7277 19.4859 11.1387 19.0749 11.6434 19.0749H12.3597C12.8644 19.0749 13.2754 19.4859 13.2754 19.9906C13.2754 20.4954 12.8644 20.9064 12.3597 20.9064ZM21.8262 15.2124C21.8262 15.6631 21.4594 16.0299 21.0079 16.0299H20.0314V14.7046V11.0941H21.0079C21.4594 11.0941 21.8262 11.4609 21.8262 11.9124V15.2124Z" fill="#242424"/>
</g>
<defs>
<clipPath id="clip0_2152_338">
<rect width="24" height="24" fill="white" transform="translate(0.000976562)"/>
</clipPath>
</defs>
</svg>
