<svg width="25" height="24" viewBox="0 0 25 24" fill="none" xmlns="http://www.w3.org/2000/svg">
<g clip-path="url(#clip0_2152_341)">
<path d="M19.4827 2.89024C17.6057 1.01871 15.1148 -0.00954263 12.4716 6.67481e-05C7.03302 0.0160511 2.6084 4.44893 2.6084 9.88174C2.6084 11.7421 3.12018 13.6376 4.12963 15.5153C4.92351 16.9921 6.02615 18.4618 7.40681 19.8834C9.74113 22.2869 12.5116 24 12.5116 24C12.5116 24 15.2765 22.2865 17.6057 19.8843C18.9834 18.4635 20.0835 16.995 20.8757 15.5196C21.8829 13.6436 22.3936 11.7504 22.3936 9.89261C22.3935 7.24868 21.3598 4.76182 19.4827 2.89024ZM19.6439 14.8387C18.9171 16.1965 17.8988 17.5568 16.6175 18.8819C14.9392 20.6173 13.2394 21.8402 12.5107 22.3331C11.7805 21.8403 10.0765 20.6169 8.39427 18.8801C7.10999 17.5543 6.08952 16.1929 5.36109 14.8338C4.4684 13.1683 4.01577 11.5021 4.01577 9.88174C4.01577 5.22264 7.81087 1.42108 12.4757 1.40739C12.4843 1.40739 12.4926 1.40735 12.5011 1.40735C14.7591 1.40735 16.8849 2.28738 18.489 3.8868C20.0994 5.49246 20.9863 7.62536 20.9863 9.89261C20.9863 11.5106 20.5346 13.1748 19.6439 14.8387Z" fill="#242424"/>
<path d="M7.22461 6.43503V12.5278L12.5011 15.5742L17.7776 12.5278V6.43503L12.5011 3.38867L7.22461 6.43503ZM15.6666 6.8413L12.5011 8.66895L9.33558 6.8413L12.5011 5.01369L15.6666 6.8413ZM8.63194 8.06005L11.7975 9.88766V13.5429L8.63194 11.7153V8.06005ZM13.2047 13.5429V9.88766L16.3702 8.06005V11.7153L13.2047 13.5429Z" fill="#242424"/>
</g>
<defs>
<clipPath id="clip0_2152_341">
<rect width="24" height="24" fill="white" transform="translate(0.500977)"/>
</clipPath>
</defs>
</svg>
