<svg width="24" height="24" viewBox="0 0 24 24" fill="none" xmlns="http://www.w3.org/2000/svg">
<path d="M21.0069 9.74413H20.0289C20.0124 5.33038 16.4184 1.74463 12.0002 1.74463C7.58195 1.74463 3.98795 5.33038 3.97145 9.74413H2.99345C1.79795 9.74413 0.825195 10.7169 0.825195 11.9124V15.2124C0.825195 16.4079 1.79795 17.3799 2.99345 17.3799H4.0967C4.77095 17.3799 5.31995 16.8316 5.31995 16.1566V10.7926C5.31995 10.4529 5.31995 10.1139 5.31995 9.77488C5.31995 6.09088 8.31695 3.09463 12.0009 3.09463C15.6849 3.09463 18.6819 6.09163 18.6819 9.77488V10.7926V14.7046V16.1566V16.7236C18.6819 18.1524 17.5194 19.3156 16.0899 19.3156H14.5104C14.2209 18.3976 13.3719 17.7249 12.3587 17.7249H11.6424C10.3929 17.7249 9.3767 18.7411 9.3767 19.9906C9.3767 21.2401 10.3929 22.2564 11.6424 22.2564H12.3587C13.3719 22.2564 14.2209 21.5844 14.5104 20.6656H16.0899C18.0384 20.6656 19.6502 19.2406 19.9652 17.3806H21.0077C22.2032 17.3806 23.1759 16.4086 23.1759 15.2131V11.9131C23.1752 10.7169 22.2024 9.74413 21.0069 9.74413ZM3.9692 16.0299H2.99345C2.54195 16.0299 2.1752 15.6631 2.1752 15.2124V11.9124C2.1752 11.4609 2.54195 11.0941 2.99345 11.0941H3.96995V16.0299H3.9692ZM12.3587 20.9064H11.6424C11.1377 20.9064 10.7267 20.4954 10.7267 19.9906C10.7267 19.4859 11.1377 19.0749 11.6424 19.0749H12.3587C12.8634 19.0749 13.2744 19.4859 13.2744 19.9906C13.2744 20.4954 12.8634 20.9064 12.3587 20.9064ZM21.8252 15.2124C21.8252 15.6631 21.4584 16.0299 21.0069 16.0299H20.0304V14.7046V11.0941H21.0069C21.4584 11.0941 21.8252 11.4609 21.8252 11.9124V15.2124Z" fill="#242424"/>
</svg>
