<svg width="20" height="20" viewBox="0 0 20 20" fill="none" xmlns="http://www.w3.org/2000/svg">
<path d="M17.4998 5.83317H6.6665C6.44549 5.83317 6.23353 5.74537 6.07725 5.58909C5.92097 5.43281 5.83317 5.22085 5.83317 4.99984C5.83317 4.77882 5.92097 4.56686 6.07725 4.41058C6.23353 4.2543 6.44549 4.1665 6.6665 4.1665H17.4998C17.7209 4.1665 17.9328 4.2543 18.0891 4.41058C18.2454 4.56686 18.3332 4.77882 18.3332 4.99984C18.3332 5.22085 18.2454 5.43281 18.0891 5.58909C17.9328 5.74537 17.7209 5.83317 17.4998 5.83317ZM18.3332 9.99984C18.3332 9.77882 18.2454 9.56686 18.0891 9.41058C17.9328 9.2543 17.7209 9.1665 17.4998 9.1665H2.49984C2.27882 9.1665 2.06686 9.2543 1.91058 9.41058C1.7543 9.56686 1.6665 9.77882 1.6665 9.99984C1.6665 10.2209 1.7543 10.4328 1.91058 10.5891C2.06686 10.7454 2.27882 10.8332 2.49984 10.8332H17.4998C17.7209 10.8332 17.9328 10.7454 18.0891 10.5891C18.2454 10.4328 18.3332 10.2209 18.3332 9.99984ZM18.3332 14.9998C18.3332 14.7788 18.2454 14.5669 18.0891 14.4106C17.9328 14.2543 17.7209 14.1665 17.4998 14.1665H9.99984C9.77882 14.1665 9.56686 14.2543 9.41058 14.4106C9.2543 14.5669 9.1665 14.7788 9.1665 14.9998C9.1665 15.2209 9.2543 15.4328 9.41058 15.5891C9.56686 15.7454 9.77882 15.8332 9.99984 15.8332H17.4998C17.7209 15.8332 17.9328 15.7454 18.0891 15.5891C18.2454 15.4328 18.3332 15.2209 18.3332 14.9998Z" fill="#D71920"/>
</svg>
