<svg width="80" height="80" viewBox="0 0 80 80" fill="none" xmlns="http://www.w3.org/2000/svg">
<g clip-path="url(#clip0_2526_1777)">
<path d="M77.6562 72.6134C75.0695 72.6134 73.9027 72.0323 72.4252 71.2966C71.8155 70.993 71.1761 70.6751 70.4377 70.3919L78.3539 49.5666C78.97 47.9456 78.8678 46.1322 78.0733 44.5909C77.2787 43.0497 75.8608 41.9144 74.1833 41.4761L68.7323 40.0519V23.7039C68.7323 20.273 65.9411 17.4817 62.5102 17.4817H51.7522V11.4327C51.7522 6.61703 47.8344 2.69922 43.0188 2.69922H36.9814C32.1658 2.69922 28.248 6.61703 28.248 11.4327V17.4816H17.49C14.0591 17.4816 11.2678 20.2728 11.2678 23.7037V40.0519L5.81687 41.4761C4.13922 41.9144 2.72125 43.0497 1.92687 44.5909C1.1325 46.1322 1.03 47.9456 1.64625 49.5666L9.5625 70.3922C8.82438 70.6755 8.185 70.9931 7.57547 71.2967C6.09781 72.0323 4.93078 72.6136 2.34375 72.6136C1.04937 72.6136 0 73.663 0 74.9573C0 76.2517 1.04937 77.3011 2.34375 77.3011C6.03312 77.3011 7.9625 76.3405 9.66469 75.493C11.1423 74.7573 12.3094 74.1761 14.8964 74.1761C17.4834 74.1761 18.6505 74.7572 20.1281 75.493C21.8303 76.3405 23.7597 77.3011 27.4491 77.3011C31.1383 77.3011 33.0675 76.3405 34.7698 75.493C36.2473 74.7573 37.4144 74.1761 40.0011 74.1761C42.5878 74.1761 43.7547 74.7572 45.2322 75.493C46.9344 76.3405 48.8636 77.3011 52.5528 77.3011C56.242 77.3011 58.1712 76.3405 59.8734 75.493C61.3509 74.7573 62.518 74.1761 65.1047 74.1761C67.6914 74.1761 68.8583 74.7572 70.3358 75.493C72.038 76.3405 73.9672 77.3011 77.6564 77.3011C78.9508 77.3011 80.0002 76.2517 80.0002 74.9573C80.0002 73.663 78.9506 72.6134 77.6562 72.6134ZM32.9355 11.4327C32.9355 9.20172 34.7505 7.38672 36.9814 7.38672H43.0188C45.2497 7.38672 47.0647 9.20172 47.0647 11.4327V17.4816H32.9355V11.4327ZM15.9552 23.7039C15.9552 22.8577 16.6436 22.1692 17.4898 22.1692H62.51C63.3563 22.1692 64.0447 22.8577 64.0447 23.7039V38.8272L40.5923 32.6994C40.2039 32.598 39.7958 32.598 39.4073 32.6994L15.955 38.8272L15.9552 23.7039ZM57.7839 71.2967C56.3064 72.0323 55.1394 72.6134 52.5528 72.6134C49.9663 72.6134 48.7992 72.0323 47.3217 71.2966C45.6195 70.4491 43.6903 69.4884 40.0011 69.4884C36.3119 69.4884 34.3827 70.4491 32.6803 71.2966C31.2028 72.0322 30.0358 72.6134 27.4491 72.6134C24.8622 72.6134 23.695 72.0323 22.2175 71.2966C20.5153 70.4491 18.5859 69.4884 14.8966 69.4884C14.6705 69.4884 14.4511 69.4922 14.2378 69.4991L6.02766 47.9009C5.83063 47.3827 5.98422 46.9505 6.09328 46.7389C6.20234 46.5273 6.46531 46.1516 7.00172 46.0114L40 37.3894L72.9983 46.0116C73.5347 46.1516 73.7977 46.5273 73.9067 46.7389C74.0158 46.9505 74.1694 47.3827 73.9723 47.9011L65.7623 69.4992C65.5494 69.4923 65.3303 69.4886 65.1045 69.4886C61.4153 69.4884 59.4861 70.4492 57.7839 71.2967Z" fill="#242424"/>
<path d="M61.6685 49.3837L40.5927 43.8768C40.2043 43.7754 39.7961 43.7754 39.4077 43.8768L18.3319 49.3837C17.0796 49.7109 16.3296 50.9915 16.6568 52.2439C16.9839 53.4962 18.2646 54.2461 19.5169 53.919L40.0002 48.567L60.4835 53.919C60.6821 53.9711 60.8814 53.9957 61.0775 53.9957C62.118 53.9957 63.0683 53.2976 63.3435 52.2439C63.6708 50.9915 62.9208 49.7109 61.6685 49.3837Z" fill="#242424"/>
</g>
<defs>
<clipPath id="clip0_2526_1777">
<rect width="80" height="80" fill="white"/>
</clipPath>
</defs>
</svg>
