<svg width="80" height="80" viewBox="0 0 80 80" fill="none" xmlns="http://www.w3.org/2000/svg">
<g clip-path="url(#clip0_2526_1769)">
<path d="M2.34394 65.7811H14.0627V72.8124C14.0627 74.1067 15.112 75.1561 16.4064 75.1561H77.6563C78.9507 75.1561 80 74.1067 80 72.8124V11.875C80 10.5806 78.9507 9.53124 77.6563 9.53124H65.9376V7.1875C65.9376 5.89312 64.8882 4.84375 63.5938 4.84375C62.2994 4.84375 61.2501 5.89312 61.2501 7.1875V9.53124H49.3751V7.1875C49.3751 5.89312 48.3257 4.84375 47.0314 4.84375C45.737 4.84375 44.6876 5.89312 44.6876 7.1875V9.53124H32.9689V7.1875C32.9689 5.89312 31.9195 4.84375 30.6251 4.84375C29.3308 4.84375 28.2814 5.89312 28.2814 7.1875V9.53124H16.4064C15.112 9.53124 14.0627 10.5806 14.0627 11.875V25.9375C14.0627 43.2109 6.88378 56.4993 0.843475 61.6369C0.0853515 62.2686 -0.195742 63.3074 0.140039 64.2354C0.476132 65.1632 1.35707 65.7811 2.34394 65.7811ZM75.3125 70.4686H18.7502V65.7811H63.5938C64.1421 65.7811 64.673 65.5889 65.0943 65.2379C67.9118 62.8911 72.276 57.304 75.3125 50.148V70.4686ZM18.7502 14.2187H28.2814V16.5625C28.2814 17.8569 29.3308 18.9062 30.6251 18.9062C31.9195 18.9062 32.9689 17.8569 32.9689 16.5625V14.2187H44.6876V16.5625C44.6876 17.8569 45.737 18.9062 47.0314 18.9062C48.3257 18.9062 49.3751 17.8569 49.3751 16.5625V14.2187H61.2501V16.5625C61.2501 17.8569 62.2994 18.9062 63.5938 18.9062C64.8882 18.9062 65.9376 17.8569 65.9376 16.5625V14.2187H75.3125V23.5937H18.7502V14.2187ZM18.71 28.2796H75.271C74.7429 43.1476 69.0365 54.8457 62.6748 61.0936H7.67502C14.8833 51.9091 18.3233 39.9502 18.71 28.2796Z" fill="#242424"/>
</g>
<defs>
<clipPath id="clip0_2526_1769">
<rect width="80" height="80" fill="white"/>
</clipPath>
</defs>
</svg>
