<svg width="80" height="80" viewBox="0 0 80 80" fill="none" xmlns="http://www.w3.org/2000/svg">
<path d="M71.9628 75.3114V17.8242H59.8406V0L20.1591 11.1258V27.0594H8.03682V75.3114H3.11328V80H76.8863V75.3114H71.9628ZM12.7255 75.3114V31.748H32.4165V75.3114H12.7255ZM37.1051 75.3114V27.0594H24.8476V14.6807L55.1517 6.18415L55.084 75.3115H37.1051V75.3114ZM59.8405 75.3114V22.5128H67.274V75.3114H59.8405Z" fill="#242424"/>
<path d="M20.2266 39.1528H24.9152V48.5834H20.2266V39.1528Z" fill="#242424"/>
<path d="M20.2266 56.376H24.9152V65.8065H20.2266V56.376Z" fill="#242424"/>
<path d="M42.8945 39.1528H47.5832V48.5834H42.8945V39.1528Z" fill="#242424"/>
<path d="M42.8945 21.9292H47.5832V31.3598H42.8945V21.9292Z" fill="#242424"/>
<path d="M42.8945 56.376H47.5832V65.8065H42.8945V56.376Z" fill="#242424"/>
</svg>
