<svg width="80" height="80" viewBox="0 0 80 80" fill="none" xmlns="http://www.w3.org/2000/svg">
<g clip-path="url(#clip0_2526_1786)">
<path d="M79.9997 7.36203C79.9997 3.3026 76.6971 0 72.6352 0H72.6346C68.7711 0 65.1389 1.50451 62.4076 4.23643L49.3077 17.3364L16.712 9.66671C10.4943 8.2037 3.93675 10.791 0.393675 16.1053C0.137329 16.4904 0 16.9427 0 17.4053C0 18.2677 0.473631 19.0612 1.23291 19.4695L31.0942 35.5492L16.4355 50.2079H7.36203C3.3026 50.2079 0 53.5105 0 57.573C0 58.3958 0.432127 59.1587 1.1383 59.5823L13.1878 66.8125L20.4174 78.862C20.841 79.5676 21.6039 79.9997 22.4273 79.9997C24.3957 79.9997 26.245 79.2331 27.6342 77.8427C29.0258 76.4517 29.7918 74.6024 29.7918 72.6352V63.5648L44.4505 48.9054L60.5302 78.7674C60.9391 79.5267 61.7325 80.0003 62.5944 80.0003C63.057 80.0003 63.5093 79.863 63.8944 79.606C69.2087 76.0635 71.796 69.506 70.3336 63.2883L62.6639 30.6926L75.7633 17.5927C78.4952 14.8602 79.9997 11.228 79.9997 7.36203ZM6.01072 16.7187C8.57663 14.403 12.1832 13.4167 15.6384 14.2291L45.4094 21.234L34.5549 32.0885L6.01072 16.7187ZM65.7706 64.3619C66.5836 67.8171 65.5967 71.4237 63.2816 73.9896L47.9112 45.4448L58.7656 34.5903L65.7706 64.3619ZM72.4491 14.2779L25.7909 60.936C25.3509 61.3761 25.1043 61.9718 25.1043 62.5937V72.6352C25.1043 73.3499 24.826 74.0219 24.3194 74.5285C24.1045 74.7434 23.8598 74.9173 23.5943 75.0461L16.9055 63.8981C16.7077 63.5685 16.4318 63.292 16.1016 63.0942L4.95481 56.406C5.38816 55.5131 6.3043 54.896 7.36203 54.896H17.4065C18.0279 54.896 18.6242 54.6488 19.0636 54.2094L65.7218 7.55063C67.5681 5.70432 70.0229 4.68748 72.6346 4.68748H72.6377C74.1123 4.68748 75.3122 5.88743 75.3122 7.36447C75.3122 9.97616 74.2954 12.431 72.4491 14.2779Z" fill="#242424"/>
</g>
<defs>
<clipPath id="clip0_2526_1786">
<rect width="80" height="80" fill="white"/>
</clipPath>
</defs>
</svg>
