<svg width="80" height="80" viewBox="0 0 80 80" fill="none" xmlns="http://www.w3.org/2000/svg">
<path d="M68.2812 41.8989H60.4503C59.3845 41.8989 58.3527 42.0446 57.3706 42.3124C55.4334 38.5043 51.4784 35.8877 46.9211 35.8877H33.0789C28.5216 35.8877 24.5666 38.5043 22.6294 42.3124C21.6473 42.0446 20.6155 41.8989 19.5497 41.8989H11.7188C5.25703 41.8989 0 47.156 0 53.6177V66.1361C0 70.0132 3.15422 73.1674 7.03125 73.1674H72.9688C76.8458 73.1674 80 70.0132 80 66.1361V53.6177C80 47.156 74.743 41.8989 68.2812 41.8989ZM21.3602 47.6068V68.48H7.03125C5.73891 68.48 4.6875 67.4286 4.6875 66.1363V53.6179C4.6875 49.7408 7.84172 46.5866 11.7188 46.5866H19.5497C20.1859 46.5866 20.802 46.673 21.3886 46.8322C21.3717 47.0886 21.3602 47.3464 21.3602 47.6068ZM53.9523 68.48H26.0477V47.6066C26.0477 43.7296 29.2019 40.5754 33.0789 40.5754H46.9211C50.7981 40.5754 53.9523 43.7296 53.9523 47.6066V68.48ZM75.3125 66.1363C75.3125 67.4286 74.2611 68.48 72.9688 68.48H58.6398V47.6066C58.6398 47.3461 58.6283 47.0883 58.6114 46.8321C59.198 46.673 59.8141 46.5864 60.4503 46.5864H68.2812C72.1583 46.5864 75.3125 49.7407 75.3125 53.6177V66.1363Z" fill="#242424"/>
<path d="M15.6341 19.7661C9.89211 19.7661 5.2207 24.4375 5.2207 30.1796C5.22055 35.9216 9.89211 40.593 15.6341 40.593C21.376 40.593 26.0476 35.9216 26.0476 30.1796C26.0476 24.4375 21.3762 19.7661 15.6341 19.7661ZM15.634 35.9055C12.4766 35.9055 9.90805 33.3369 9.90805 30.1796C9.90805 27.0222 12.4766 24.4536 15.634 24.4536C18.7913 24.4536 21.3599 27.0222 21.3599 30.1796C21.3599 33.3369 18.7913 35.9055 15.634 35.9055Z" fill="#242424"/>
<path d="M40.0001 6.83252C32.3288 6.83252 26.0879 13.0735 26.0879 20.7447C26.0879 28.416 32.3288 34.6569 40.0001 34.6569C47.6713 34.6569 53.9123 28.416 53.9123 20.7447C53.9123 13.0736 47.6713 6.83252 40.0001 6.83252ZM40.0001 29.9694C34.9135 29.9694 30.7754 25.8313 30.7754 20.7447C30.7754 15.6583 34.9135 11.52 40.0001 11.52C45.0866 11.52 49.2248 15.6581 49.2248 20.7447C49.2248 25.8313 45.0866 29.9694 40.0001 29.9694Z" fill="#242424"/>
<path d="M64.3656 19.7661C58.6237 19.7661 53.9521 24.4375 53.9521 30.1796C53.9523 35.9216 58.6237 40.593 64.3656 40.593C70.1076 40.593 74.779 35.9216 74.779 30.1796C74.779 24.4375 70.1076 19.7661 64.3656 19.7661ZM64.3656 35.9055C61.2084 35.9055 58.6396 33.3369 58.6396 30.1796C58.6398 27.0222 61.2084 24.4536 64.3656 24.4536C67.5229 24.4536 70.0915 27.0222 70.0915 30.1796C70.0915 33.3369 67.5229 35.9055 64.3656 35.9055Z" fill="#242424"/>
</svg>
