<svg width="40" height="40" viewBox="0 0 40 40" fill="none" xmlns="http://www.w3.org/2000/svg">
<g clip-path="url(#clip0_3282_6103)">
<path d="M15.6217 40C7.00788 40 0 32.9921 0 24.3783C0 15.7645 7.00788 8.75665 15.6217 8.75665C17.0537 8.75665 18.4409 8.95138 19.7594 9.31395L20.4685 12.8593C18.9773 12.2295 17.3394 11.881 15.6217 11.881C8.73064 11.881 3.12433 17.4873 3.12433 24.3783C3.12433 31.2694 8.73064 36.8757 15.6217 36.8757C22.5127 36.8757 28.119 31.2694 28.119 24.3783C28.119 22.6606 27.7705 21.0227 27.1407 19.5315L30.686 20.2406C31.0486 21.5591 31.2433 22.9463 31.2433 24.3783C31.2433 32.9922 24.2355 40 15.6217 40ZM15.6217 30.627C12.1762 30.627 9.373 27.8238 9.373 24.3783C9.373 21.0647 11.9659 18.3467 15.229 18.1432L18.0479 15.3244C17.2737 15.1167 16.4605 15.0053 15.6217 15.0053C10.4534 15.0053 6.24867 19.2101 6.24867 24.3783C6.24867 29.5466 10.4534 33.7513 15.6217 33.7513C20.7899 33.7513 24.9947 29.5466 24.9947 24.3783C24.9947 23.5395 24.8833 22.7263 24.6756 21.9521L21.8568 24.771C21.6533 28.0342 18.9353 30.627 15.6217 30.627ZM22.7628 8.40024L31.1631 0L32.6359 7.36414L40.0001 8.83695L31.5998 17.2372L26.0766 16.1326L16.7263 25.4829L14.5171 23.2737L23.8674 13.9234L22.7628 8.40024ZM29.2443 6.33724L26.1544 9.42713L26.8908 13.1092L30.5729 13.8456L33.6628 10.7558L29.9808 10.0194L29.2443 6.33724Z" fill="#D71920"/>
</g>
<defs>
<clipPath id="clip0_3282_6103">
<rect width="40" height="40" fill="white"/>
</clipPath>
</defs>
</svg>
