<svg width="40" height="40" viewBox="0 0 40 40" fill="none" xmlns="http://www.w3.org/2000/svg">
<g clip-path="url(#clip0_3282_6095)">
<path d="M36.4062 1.71875C34.4677 1.71875 32.8906 3.29586 32.8906 5.23438V13.8664C31.512 12.8036 29.5259 12.903 28.2621 14.1669L21.4601 20.9693C21.4598 20.9695 21.4595 20.9698 21.4593 20.97C20.8823 21.547 20.3938 22.1887 19.9999 22.8787C19.606 22.1887 19.1175 21.547 18.5405 20.97C18.5403 20.9698 18.54 20.9695 18.5398 20.9693L11.7377 14.1669C10.474 12.903 8.48797 12.8036 7.10922 13.8664V5.23438C7.10922 3.29586 5.53211 1.71875 3.59359 1.71875C1.65508 1.71875 0.078125 3.29586 0.078125 5.23438V18.0309C0.078125 20.1285 0.817656 22.1711 2.16047 23.7825L7.89062 30.6587V32.9688H7.5C6.85281 32.9688 6.32812 33.4934 6.32812 34.1406V38.8281C6.32812 39.4753 6.85281 40 7.5 40H32.5C33.1472 40 33.6719 39.4753 33.6719 38.8281V34.1406C33.6719 33.4934 33.1472 32.9688 32.5 32.9688H32.1094V30.6587L37.8395 23.7825C39.1823 22.1711 39.9219 20.1285 39.9219 18.0309V5.23438C39.9219 3.29586 38.3448 1.71875 36.4062 1.71875ZM18.8281 37.6562H8.67188V35.3125H18.8281V37.6562ZM18.8281 32.9688H10.2344V30.2344C10.2344 29.9602 10.1383 29.6948 9.96273 29.4841L3.96102 22.282C2.96844 21.0911 2.42188 19.5813 2.42188 18.0309V5.23438C2.42188 4.5882 2.94758 4.0625 3.59375 4.0625C4.23992 4.0625 4.76562 4.5882 4.76562 5.23438V14.7109C4.76562 16.276 5.37516 17.7475 6.48188 18.8541L11.47 23.8422C11.9276 24.2998 12.6696 24.2998 13.1273 23.8422C13.5849 23.3846 13.5849 22.6426 13.1273 22.1849L8.42227 17.4799C7.96594 17.0222 7.96625 16.2812 8.42352 15.8241C8.88109 15.3665 9.62305 15.3666 10.0806 15.8241L16.8827 22.6265C16.8829 22.6267 16.8831 22.627 16.8834 22.6273C18.1374 23.8816 18.8281 25.5491 18.8281 27.3227V32.9688ZM31.3281 37.6562H21.1719V35.3125H31.3281V37.6562ZM37.5781 18.0309C37.5781 19.5813 37.0316 21.0911 36.039 22.2821L30.0373 29.4842C29.8617 29.6948 29.7656 29.9602 29.7656 30.2344V32.9688H21.1719V27.3227C21.1719 25.5491 21.8626 23.8815 23.1168 22.6272C23.117 22.627 23.1173 22.6266 23.1175 22.6264L29.9195 15.8241C30.3771 15.3665 31.119 15.3664 31.5766 15.824C32.0338 16.2812 32.0342 17.0221 31.5779 17.4798L26.8729 22.1848C26.4152 22.6424 26.4152 23.3845 26.8729 23.8421C27.3305 24.2997 28.0725 24.2997 28.5302 23.8421L33.5183 18.8541C34.625 17.7474 35.2345 16.2759 35.2345 14.7109V5.23438C35.2345 4.5882 35.7602 4.0625 36.4064 4.0625C37.0526 4.0625 37.5783 4.5882 37.5783 5.23438V18.0309H37.5781Z" fill="#D71920"/>
<path d="M19.1723 15.2794C19.63 15.7371 20.3719 15.7371 20.8296 15.2794L27.4899 8.61912C29.4591 6.64998 29.4591 3.446 27.4899 1.47686C25.5208 -0.492285 22.3168 -0.492285 20.3476 1.47686L20.0009 1.82357L19.6542 1.47686C17.6851 -0.492207 14.4812 -0.492207 12.512 1.47686C10.5429 3.446 10.5429 6.64998 12.5119 8.61904L19.1723 15.2794ZM14.1694 3.13412C15.2247 2.07881 16.9417 2.07881 17.9969 3.13412L19.1723 4.30943C19.63 4.76709 20.3719 4.76709 20.8296 4.30943L22.005 3.13412C23.0603 2.07881 24.7774 2.07881 25.8327 3.13412C26.888 4.18943 26.888 5.90646 25.8327 6.96186L20.001 12.7935L14.1693 6.96178C13.114 5.90654 13.114 4.18943 14.1694 3.13412Z" fill="#D71920"/>
</g>
<defs>
<clipPath id="clip0_3282_6095">
<rect width="40" height="40" fill="white"/>
</clipPath>
</defs>
</svg>
