<svg width="40" height="40" viewBox="0 0 40 40" fill="none" xmlns="http://www.w3.org/2000/svg">
<g clip-path="url(#clip0_3282_6065)">
<path d="M39.8981 16.386L35.6904 5.31007C35.46 4.70343 34.8786 4.30249 34.2298 4.30249H5.77025C5.12134 4.30249 4.54001 4.70351 4.30962 5.31007L0.101887 16.386C-0.114832 16.9566 0.0204023 17.601 0.448293 18.0362L18.8858 36.7927C19.1795 37.0916 19.581 37.2598 20.0001 37.2598C20.4192 37.2598 20.8206 37.0916 21.1144 36.7927L39.5519 18.0362C39.9796 17.601 40.1149 16.9566 39.8981 16.386ZM36.1453 15.307H28.0963L26.337 7.42741H33.1518L36.1453 15.307ZM12.0458 18.432L16.5666 29.9756L5.21931 18.432H12.0458ZM15.4019 18.432H24.5981L20 30.1732L15.4019 18.432ZM27.9542 18.432H34.7808L23.4334 29.9756L27.9542 18.432ZM23.1351 7.42741L24.8944 15.3069H15.1056L16.8649 7.42741H23.1351ZM6.84814 7.42741H13.663L11.9037 15.3069H3.8547L6.84814 7.42741Z" fill="#D71920"/>
</g>
<defs>
<clipPath id="clip0_3282_6065">
<rect width="40" height="40" fill="white"/>
</clipPath>
</defs>
</svg>
