<svg width="80" height="80" viewBox="0 0 80 80" fill="none" xmlns="http://www.w3.org/2000/svg">
<g clip-path="url(#clip0_2526_1793)">
<path d="M40 0C17.9427 0 0 17.9427 0 40C0 62.0573 17.9427 80 40 80C62.0573 80 80 62.0542 80 40C80 17.9458 62.0573 0 40 0ZM40 73.8033C21.3633 73.8033 6.19672 58.6398 6.19672 40C6.19672 21.3602 21.3633 6.19672 40 6.19672C58.6398 6.19672 73.8033 21.3602 73.8033 40C73.8033 58.6398 58.6367 73.8033 40 73.8033Z" fill="#242424"/>
<path d="M58.3521 26.0884C57.091 24.942 55.1297 25.0319 53.9772 26.2991L35.0771 47.1109L25.9461 37.8283C24.7408 36.6075 22.7827 36.5889 21.565 37.7911C20.3442 38.9902 20.3256 40.9514 21.5278 42.1722L32.9577 53.7911C33.5433 54.3859 34.3364 54.7175 35.1667 54.7175C35.1853 54.7175 35.2071 54.7175 35.2256 54.7206C36.0808 54.702 36.8864 54.3364 37.4596 53.7044L58.5625 30.4666C59.7122 29.1961 59.6192 27.238 58.3521 26.0884Z" fill="#242424"/>
</g>
<defs>
<clipPath id="clip0_2526_1793">
<rect width="80" height="80" fill="white"/>
</clipPath>
</defs>
</svg>
