<svg width="40" height="40" viewBox="0 0 40 40" fill="none" xmlns="http://www.w3.org/2000/svg">
<g clip-path="url(#clip0_3282_6110)">
<path d="M11.7969 9.375C11.7969 6.79031 9.69406 4.6875 7.10938 4.6875C4.52469 4.6875 2.42188 6.79031 2.42188 9.375C2.42188 11.9597 4.52469 14.0625 7.10938 14.0625C9.69406 14.0625 11.7969 11.9597 11.7969 9.375ZM7.10938 11.7188C5.81703 11.7188 4.76562 10.6673 4.76562 9.375C4.76562 8.08266 5.81703 7.03125 7.10938 7.03125C8.40172 7.03125 9.45312 8.08266 9.45312 9.375C9.45312 10.6673 8.40172 11.7188 7.10938 11.7188Z" fill="#D71920"/>
<path d="M37.5781 9.375C37.5781 6.79031 35.4753 4.6875 32.8906 4.6875C30.3059 4.6875 28.2031 6.79031 28.2031 9.375C28.2031 11.9597 30.3059 14.0625 32.8906 14.0625C35.4753 14.0625 37.5781 11.9597 37.5781 9.375ZM32.8906 11.7188C31.5983 11.7188 30.5469 10.6673 30.5469 9.375C30.5469 8.08266 31.5983 7.03125 32.8906 7.03125C34.183 7.03125 35.2344 8.08266 35.2344 9.375C35.2344 10.6673 34.183 11.7188 32.8906 11.7188Z" fill="#D71920"/>
<path d="M32.8906 14.0625C30.7255 14.0625 28.7863 15.0464 27.4954 16.5902C26.2158 13.7226 23.3377 11.7188 20 11.7188C16.6623 11.7188 13.7842 13.7226 12.5046 16.5902C11.2138 15.0464 9.27445 14.0625 7.10938 14.0625C3.20977 14.0625 0 17.2205 0 21.0938V26.9531C0 27.6003 0.524687 28.125 1.17188 28.125H2.45367L3.52133 38.9432C3.58047 39.5429 4.08484 40 4.6875 40H9.45312C10.0558 40 10.5602 39.5429 10.6193 38.9432L11.687 28.125H15.6002L16.4884 38.9241C16.5383 39.5321 17.0462 40 17.6562 40H22.3438C22.9538 40 23.4617 39.5321 23.5116 38.9241L24.3998 28.125H28.313L29.3806 38.9432C29.4398 39.5429 29.9442 40 30.5469 40H35.3125C35.9152 40 36.4195 39.5429 36.4788 38.9432L37.5463 28.125H38.8281C39.4753 28.125 40 27.6003 40 26.9531V21.0938C40 17.2251 36.7943 14.0625 32.8906 14.0625ZM10.625 25.7812C10.0223 25.7812 9.51797 26.2384 9.45883 26.838L8.39117 37.6562H5.74945L4.6818 26.838C4.62266 26.2384 4.11828 25.7812 3.51562 25.7812H2.34375V21.0938C2.34375 18.5091 4.48156 16.4062 7.10938 16.4062C9.69406 16.4062 11.7969 18.5091 11.7969 21.0938V25.7812H10.625ZM23.3204 25.7812C22.7104 25.7812 22.2024 26.2491 22.1525 26.8571L21.2643 37.6562H18.7357L17.8476 26.8571C17.7976 26.2492 17.2896 25.7812 16.6796 25.7812H14.1406V19.9219C14.1406 17.0923 16.1569 14.7248 18.8281 14.1804V19.9219C18.8281 20.5691 19.3528 21.0938 20 21.0938C20.6472 21.0938 21.1719 20.5691 21.1719 19.9219V14.1804C23.8431 14.7248 25.8594 17.0922 25.8594 19.9219V25.7812H23.3204ZM37.6562 25.7812H36.4844C35.8817 25.7812 35.3773 26.2384 35.3181 26.838L34.2505 37.6562H31.6088L30.5413 26.838C30.482 26.2384 29.9777 25.7812 29.375 25.7812H28.2031V21.0938C28.2031 18.5091 30.3059 16.4062 32.8906 16.4062C35.5184 16.4062 37.6562 18.5091 37.6562 21.0938V25.7812Z" fill="#D71920"/>
<path d="M25.8594 5.85938C25.8594 2.62852 23.2309 0 20 0C16.7691 0 14.1406 2.62852 14.1406 5.85938C14.1406 9.09023 16.7691 11.7188 20 11.7188C23.2309 11.7188 25.8594 9.09023 25.8594 5.85938ZM20 9.375C18.0615 9.375 16.4844 7.79789 16.4844 5.85938C16.4844 3.92086 18.0615 2.34375 20 2.34375C21.9385 2.34375 23.5156 3.92086 23.5156 5.85938C23.5156 7.79789 21.9385 9.375 20 9.375Z" fill="#D71920"/>
</g>
<defs>
<clipPath id="clip0_3282_6110">
<rect width="40" height="40" fill="white"/>
</clipPath>
</defs>
</svg>
