<svg width="40" height="40" viewBox="0 0 40 40" fill="none" xmlns="http://www.w3.org/2000/svg">
<g clip-path="url(#clip0_3282_6088)">
<path d="M39.8278 25.537C36.3233 18.7038 28.6963 12.5 20 12.5C11.2426 12.5 3.63777 18.7795 0.172148 25.537C-0.0573828 25.9846 -0.0573828 26.5154 0.172148 26.963C3.6766 33.7962 11.3036 40 20 40C29.8468 40 37.1052 32.2717 39.8278 26.963C40.0573 26.5154 40.0573 25.9846 39.8278 25.537ZM20 36.875C12.9081 36.875 6.95512 32.1635 3.36277 26.25C6.91535 20.402 12.8493 15.625 20 15.625C27.12 15.625 33.065 20.3699 36.6371 26.25C33.0282 32.1905 27.0514 36.875 20 36.875ZM0.492383 8.68531C1.06973 8.04398 2.05777 7.99227 2.6991 8.56969L6.1791 11.703C6.82035 12.2805 6.87215 13.2684 6.29473 13.9098C5.7173 14.5512 4.72926 14.6027 4.08801 14.0254L0.608008 10.892C-0.0332422 10.3146 -0.0850391 9.32664 0.492383 8.68531ZM18.4375 7.8125V1.5625C18.4375 0.699609 19.137 0 20 0C20.8629 0 21.5625 0.699609 21.5625 1.5625V7.8125C21.5625 8.67539 20.8629 9.375 20 9.375C19.137 9.375 18.4375 8.67539 18.4375 7.8125ZM8.53121 4.33242C8.18019 3.54406 8.53473 2.62047 9.32309 2.26945C10.1115 1.91844 11.035 2.27297 11.3861 3.06133L13.7757 8.42852C14.1267 9.2168 13.7721 10.1405 12.9838 10.4915C12.1977 10.8414 11.273 10.4904 10.9208 9.69961L8.53121 4.33242ZM33.7052 13.9098C33.1278 13.2685 33.1795 12.2805 33.8208 11.703L37.3008 8.56969C37.9421 7.99227 38.9301 8.04398 39.5075 8.68531C40.085 9.32656 40.0332 10.3145 39.3919 10.892L35.9119 14.0254C35.2704 14.6029 34.2825 14.5509 33.7052 13.9098ZM26.2242 8.42852L28.6138 3.06133C28.9648 2.27297 29.8884 1.91844 30.6768 2.26945C31.4651 2.62047 31.8197 3.54406 31.4686 4.33242L29.079 9.69953C28.7264 10.4915 27.8009 10.8409 27.0161 10.4915C26.2278 10.1405 25.8732 9.21688 26.2242 8.42852ZM20 18.5742C15.7675 18.5742 12.3242 22.0176 12.3242 26.25C12.3242 30.4824 15.7675 33.9258 20 33.9258C24.2324 33.9258 27.6757 30.4824 27.6757 26.25C27.6757 22.0176 24.2324 18.5742 20 18.5742ZM20 30.8008C17.4907 30.8008 15.4492 28.7593 15.4492 26.25C15.4492 23.7407 17.4907 21.6992 20 21.6992C22.5093 21.6992 24.5507 23.7407 24.5507 26.25C24.5507 28.7593 22.5093 30.8008 20 30.8008Z" fill="#D71920"/>
</g>
<defs>
<clipPath id="clip0_3282_6088">
<rect width="40" height="40" fill="white"/>
</clipPath>
</defs>
</svg>
