<svg width="24" height="24" viewBox="0 0 24 24" fill="none" xmlns="http://www.w3.org/2000/svg">
<g clip-path="url(#clip0_3288_7436)">
<path d="M5.71849 11.9991C5.71849 12.2234 5.80953 12.4267 5.95659 12.5737C6.10365 12.7208 6.30688 12.8118 6.53126 12.8118L17.4687 12.8118C17.9177 12.8118 18.2816 12.4479 18.2816 11.999C18.2814 11.5501 17.9175 11.1862 17.4687 11.1861L6.53134 11.1862C6.08242 11.1862 5.71856 11.5501 5.71849 11.9991Z" fill="#242424"/>
<path d="M23.7441 11.9977C23.7441 10.5054 23.1631 9.10255 22.1079 8.04731C21.0526 6.99222 19.6498 6.41118 18.1575 6.41118L14.3807 6.4111C13.9317 6.41118 13.5678 6.77504 13.5677 7.22403C13.5678 7.67272 13.9316 8.03681 14.3805 8.03681L18.1576 8.03681C19.2156 8.03688 20.2103 8.44871 20.9584 9.19688C21.7065 9.94498 22.1184 10.9396 22.1184 11.9976C22.1185 13.0555 21.7064 14.0503 20.9583 14.7984C20.2103 15.5465 19.2156 15.9584 18.1576 15.9584L14.3807 15.9584C13.9317 15.9585 13.5678 16.3223 13.5678 16.7713C13.5679 16.9957 13.6589 17.199 13.806 17.346C13.9531 17.4931 14.1563 17.5841 14.3807 17.5842L18.1576 17.5841C19.6498 17.5841 21.0528 17.0031 22.1079 15.948C23.163 14.8927 23.7442 13.4899 23.7441 11.9977Z" fill="#242424"/>
<path d="M9.60978 15.9584L5.83267 15.9585C4.77474 15.9584 3.78004 15.5464 3.03202 14.7984C2.28392 14.0503 1.87194 13.0558 1.87194 11.9978C1.87186 9.8138 3.64876 8.0369 5.83282 8.0369L9.60978 8.0369C10.0588 8.03682 10.4226 7.67297 10.4226 7.22405C10.4226 6.77521 10.0586 6.41127 9.60978 6.4112L5.83274 6.41112C2.75231 6.4112 0.246237 8.91727 0.246237 11.9976C0.246314 13.4898 0.827273 14.8927 1.88252 15.9478C2.93768 17.0029 4.34053 17.584 5.83274 17.584L9.60993 17.5841C10.0589 17.584 10.4228 17.2201 10.4228 16.7712C10.4225 16.3224 10.0588 15.9584 9.60978 15.9584Z" fill="#242424"/>
</g>
<defs>
<clipPath id="clip0_3288_7436">
<rect width="24" height="24" fill="white"/>
</clipPath>
</defs>
</svg>
