<svg width="16" height="16" viewBox="0 0 16 16" fill="none" xmlns="http://www.w3.org/2000/svg">
<path d="M16 3.4812C16 2.66932 15.3395 2.00879 14.5276 2.00879H1.47241C0.66069 2.00882 0.000281251 2.66904 0 3.48145V3.4817V12.5192C0 13.3412 0.667253 13.9921 1.47291 13.9921H14.5271C15.3491 13.9921 16 13.3249 16 12.5192V3.4817C16 3.48164 16 3.48158 16 3.48151C16 3.48142 16 3.48133 16 3.4812ZM1.47241 2.94632H14.5276C14.8225 2.94632 15.0625 3.18629 15.0625 3.48198C15.0625 3.63911 14.9844 3.78495 14.8535 3.8722L8.29703 8.24334C8.11663 8.36363 7.88344 8.36366 7.703 8.24334C7.703 8.24334 1.14641 3.87211 1.14654 3.8722C1.14657 3.87223 1.14644 3.87214 1.14641 3.87211C1.0156 3.78495 0.937504 3.63911 0.937504 3.4812C0.937504 3.18626 1.17747 2.94632 1.47241 2.94632ZM14.5271 13.0546H1.47291C1.18107 13.0546 0.937504 12.8186 0.937504 12.5192V4.85961L7.18293 9.02335C7.43112 9.18882 7.71556 9.27154 8 9.27154C8.28447 9.27154 8.56894 9.18882 8.8171 9.02335L15.0625 4.85961V12.5192C15.0625 12.8111 14.8265 13.0546 14.5271 13.0546Z" fill="#242424"/>
</svg>
