<svg width="80" height="80" viewBox="0 0 80 80" fill="none" xmlns="http://www.w3.org/2000/svg">
<path d="M41.1234 42.2364L27.79 48.9031C27.4303 49.0821 27.0495 49.1667 26.6735 49.1667C25.7572 49.1667 24.8734 48.6622 24.4355 47.7833C23.8187 46.5495 24.3183 45.0489 25.5537 44.4304L37.5052 38.4538V20.0001C37.5052 18.6199 38.625 17.5001 40.0052 17.5001C41.3854 17.5001 42.5052 18.6199 42.5052 20.0001V40.0001C42.5052 40.9473 41.9697 41.8132 41.1234 42.2364ZM75.8385 56.6667C75.8385 67.2364 67.2415 75.8334 56.6719 75.8334C46.1022 75.8334 37.5052 67.2364 37.5052 56.6667C37.5052 46.0971 46.1022 37.5001 56.6719 37.5001C67.2415 37.5001 75.8385 46.0971 75.8385 56.6667ZM70.8385 56.6667C70.8385 48.8542 64.4844 42.5001 56.6719 42.5001C48.8594 42.5001 42.5052 48.8542 42.5052 56.6667C42.5052 64.4792 48.8594 70.8334 56.6719 70.8334C64.4844 70.8334 70.8385 64.4792 70.8385 56.6667ZM61.571 50.4558L54.4486 57.575L51.7728 54.8992C50.7962 53.9226 49.2142 53.9226 48.2376 54.8992C47.2611 55.8757 47.2611 57.4578 48.2376 58.4343L52.681 62.8777C53.1693 63.366 53.8073 63.6101 54.4486 63.6101C55.0866 63.6101 55.7279 63.366 56.2161 62.8777L65.1061 53.991C66.0827 53.0144 66.0827 51.4324 65.1061 50.4558C64.1295 49.4792 62.5475 49.4792 61.571 50.4558ZM40.0052 4.16675C20.2461 4.16675 4.17188 20.241 4.17188 40.0001C4.17188 59.7592 20.2461 75.8334 40.0052 75.8334C41.0741 75.8334 42.1363 75.7724 43.1941 75.6788C41.2544 74.2994 39.5418 72.6305 38.1032 70.737C21.9883 69.7466 9.17191 56.3599 9.17191 40.0001C9.17188 22.9981 23.0032 9.16675 40.0052 9.16675C56.3651 9.16675 69.7515 21.9833 70.7421 38.098C72.6358 39.5366 74.3045 41.2488 75.6839 43.1887C75.7773 42.1312 75.8385 41.069 75.8385 40.0001C75.8385 20.241 59.7643 4.16675 40.0052 4.16675Z" fill="#051A53"/>
</svg>
