<svg width="80" height="80" viewBox="0 0 80 80" fill="none" xmlns="http://www.w3.org/2000/svg">
<path d="M74.3006 72.2204C73.1422 72.5824 72.1419 72.8949 69.9994 72.8949C68.1025 72.8949 67.1009 72.6497 66.0923 72.3424L73.5938 40.6843L66.7339 38.9432V19.1072H54.5389V2.41724H25.4611V19.1072H13.2661V38.9432L6.40625 40.6843L13.9077 72.3421C12.8988 72.6497 11.897 72.895 9.99953 72.895C7.85734 72.895 6.85703 72.5825 5.69891 72.2205C4.36719 71.8043 2.8575 71.3325 0 71.3325V76.02C2.14219 76.02 3.14234 76.3325 4.30047 76.6946C5.63219 77.1108 7.14188 77.5825 9.99953 77.5825C12.8572 77.5825 14.3666 77.1108 15.6984 76.6946C16.8567 76.3325 17.857 76.02 19.9994 76.02C22.1417 76.02 23.142 76.3325 24.3003 76.6946C25.632 77.1108 27.1416 77.5825 29.9992 77.5825C32.8567 77.5825 34.3662 77.1108 35.6981 76.6946C36.8563 76.3327 37.8564 76.02 39.9986 76.02C42.1409 76.02 43.1413 76.3325 44.2995 76.6946C45.6312 77.1108 47.1408 77.5825 49.9984 77.5825C52.8562 77.5825 54.3658 77.1108 55.6977 76.6946C56.8561 76.3325 57.8564 76.02 59.9987 76.02C62.1413 76.02 63.1416 76.3325 64.3 76.6946C65.6319 77.1108 67.1416 77.5825 69.9994 77.5825C72.8572 77.5825 74.3667 77.1108 75.6987 76.6946C76.8572 76.3325 77.8575 76.02 80 76.02V71.3325C77.1422 71.3325 75.6327 71.8043 74.3006 72.2204ZM62.0464 37.7535L42.3438 32.7529V23.7947H49.8514V29.3132H54.5389V23.7947H62.0464V37.7535ZM30.1486 7.10474H37.6562V12.6232H42.3438V7.10474H49.8514V19.1072H30.1486V7.10474ZM17.9536 23.7949H25.4611V29.3133H30.1486V23.7949H37.6562V32.753L17.9536 37.7536V23.7949ZM54.2997 72.2204C53.1413 72.5824 52.1409 72.8949 49.9986 72.8949C47.8564 72.8949 46.8561 72.5824 45.698 72.2204C44.3661 71.8041 42.8564 71.3324 39.9987 71.3324C37.1413 71.3324 35.6317 71.8041 34.2998 72.2204C33.1417 72.5822 32.1416 72.8949 29.9994 72.8949C27.8572 72.8949 26.8569 72.5824 25.6987 72.2204C24.3669 71.8041 22.8572 71.3324 19.9995 71.3324C19.4517 71.3324 18.9542 71.35 18.4973 71.381L12.0312 44.0929L37.6562 37.589V50.0447H42.3438V37.589L67.9688 44.0929L61.5028 71.3811C61.0453 71.3502 60.5473 71.3324 59.9987 71.3324C57.1409 71.3325 55.6314 71.8043 54.2997 72.2204Z" fill="#051A53"/>
</svg>
