<svg width="80" height="80" viewBox="0 0 80 80" fill="none" xmlns="http://www.w3.org/2000/svg">
<path d="M75.3125 3.90625H4.6875C2.10281 3.90625 0 6.00906 0 8.59375V55.1562C0 57.7409 2.10281 59.8438 4.6875 59.8438H27.6562V71.4062H15C13.7056 71.4062 12.6562 72.4556 12.6562 73.75C12.6562 75.0444 13.7056 76.0938 15 76.0938H65C66.2944 76.0938 67.3438 75.0444 67.3438 73.75C67.3438 72.4556 66.2944 71.4062 65 71.4062H52.3438V59.8438H75.3125C77.8972 59.8438 80 57.7409 80 55.1562V8.59375C80 6.00906 77.8972 3.90625 75.3125 3.90625ZM47.6562 71.4062H32.3438V59.8438H47.6562V71.4062ZM75.3125 55.1562C73.2567 55.1562 6.335 55.1562 4.6875 55.1562V8.59375H75.3125C75.3155 56.1675 75.3281 55.1562 75.3125 55.1562Z" fill="#051A53"/>
</svg>
