<svg width="80" height="80" viewBox="0 0 80 80" fill="none" xmlns="http://www.w3.org/2000/svg">
<g clip-path="url(#clip0_2893_2590)">
<path d="M74.6791 41.0362C74.3572 40.3776 74.3572 39.6223 74.6791 38.9639L77.6628 32.86C79.3241 29.4614 78.0078 25.4107 74.6663 23.6377L68.6648 20.4534C68.0173 20.1099 67.5734 19.4987 67.4466 18.777L66.2729 12.085C65.6193 8.35906 62.1728 5.85533 58.428 6.38517L51.701 7.33673C50.9749 7.43922 50.2569 7.20579 49.7302 6.69626L44.8472 1.97254C42.1284 -0.65776 37.869 -0.657916 35.1503 1.97254L30.2672 6.69673C29.7403 7.20641 29.0223 7.43938 28.2964 7.33719L21.5694 6.38564C17.8233 5.85548 14.3781 8.35953 13.7245 12.0854L12.5507 18.7771C12.424 19.499 11.9801 20.1101 11.3328 20.4537L5.33123 23.638C1.98969 25.4108 0.673444 29.4619 2.33468 32.8605L5.31826 38.9642C5.64013 39.6228 5.64013 40.3781 5.31826 41.0365L2.33453 47.1402C0.673288 50.5388 1.98953 54.5896 5.33107 56.3625L11.3326 59.5469C11.9801 59.8903 12.424 60.5016 12.5507 61.2233L13.7245 67.9153C14.3195 71.3071 17.2279 73.6859 20.5705 73.6856C20.8997 73.6856 21.2338 73.6624 21.5696 73.6149L28.2966 72.6634C29.022 72.5604 29.7405 72.7943 30.2673 73.3038L35.1503 78.0276C36.51 79.3429 38.254 80.0004 39.9987 80.0002C41.7429 80.0001 43.488 79.3426 44.8471 78.0276L49.7302 73.3038C50.2571 72.7943 50.9752 72.5615 51.701 72.6634L58.428 73.6149C62.1745 74.1449 65.6193 71.641 66.2729 67.9151L67.4468 61.2234C67.5735 60.5016 68.0174 59.8905 68.6648 59.5469L74.6663 56.3625C78.0078 54.5897 79.3241 50.5387 77.6628 47.1401L74.6791 41.0362ZM72.5036 52.2865L66.5021 55.4708C64.5887 56.4863 63.2764 58.2922 62.9021 60.4259L61.7284 67.1178C61.5073 68.3784 60.3418 69.2251 59.0742 69.0462L52.3472 68.0947C50.2019 67.7907 48.0791 68.4812 46.5221 69.9873L41.639 74.7109C40.7193 75.6005 39.2782 75.6005 38.3582 74.7109L33.4753 69.9871C32.1594 68.7142 30.4391 68.0243 28.6431 68.0243C28.3141 68.0243 27.9823 68.0475 27.6502 68.0945L20.9232 69.0461C19.6566 69.2251 18.4902 68.3782 18.269 67.1176L17.0951 60.4256C16.7207 58.2919 15.4085 56.4858 13.4949 55.4707L7.4934 52.2863C6.36279 51.6865 5.91748 50.316 6.4795 49.1662L9.46324 43.0623C10.4145 41.1161 10.4145 38.8839 9.46324 36.9376L6.4795 30.8338C5.91748 29.6839 6.36279 28.3135 7.4934 27.7136L13.4949 24.5293C15.4084 23.5138 16.7207 21.7079 17.0949 19.5742L18.2687 12.8823C18.4899 11.6217 19.6552 10.7748 20.9229 10.9539L27.6498 11.9054C29.7944 12.209 31.9179 11.5189 33.475 10.0128L38.3581 5.28908C39.2778 4.3994 40.7188 4.3994 41.6388 5.28908L46.5218 10.0128C48.0788 11.519 50.2021 12.209 52.3469 11.9054L59.0739 10.9539C60.3406 10.7747 61.507 11.6217 61.7281 12.8823L62.9018 19.5743C63.2762 21.708 64.5884 23.5141 66.502 24.5293L72.5035 27.7136C73.6341 28.3135 74.0794 29.6839 73.5174 30.8338L70.5337 36.9375C69.5824 38.8836 69.5824 41.1161 70.5337 43.0621L73.5174 49.1659C74.0796 50.316 73.6343 51.6866 72.5036 52.2865Z" fill="#051A53"/>
<path d="M56.8583 23.143C55.9575 22.2421 54.4966 22.2421 53.5957 23.143L23.1444 53.5944C22.2435 54.4953 22.2435 55.9561 23.1444 56.857C23.5949 57.3075 24.1854 57.5328 24.7757 57.5328C25.366 57.5328 25.9566 57.3076 26.4069 56.857L56.8582 26.4058C57.7594 25.5047 57.7594 24.0441 56.8583 23.143Z" fill="#051A53"/>
<path d="M30.7717 19.2368C26.1073 19.2368 22.3125 23.0316 22.3125 27.696C22.3125 32.3603 26.1073 36.1552 30.7717 36.1552C35.436 36.1552 39.2308 32.3603 39.2308 27.696C39.2308 23.0316 35.436 19.2368 30.7717 19.2368ZM30.7717 31.541C28.6515 31.541 26.9267 29.8161 26.9267 27.6958C26.9267 25.5757 28.6515 23.8509 30.7717 23.8509C32.8918 23.8509 34.6168 25.5757 34.6168 27.6958C34.6166 29.8161 32.8918 31.541 30.7717 31.541Z" fill="#051A53"/>
<path d="M49.2248 43.845C44.5604 43.845 40.7656 47.6398 40.7656 52.3041C40.7656 56.9685 44.5604 60.7633 49.2248 60.7633C53.8891 60.7633 57.684 56.9685 57.684 52.3041C57.684 47.6398 53.8891 43.845 49.2248 43.845ZM49.2248 56.1491C47.1047 56.1491 45.3797 54.4243 45.3797 52.3041C45.3797 50.184 47.1045 48.4592 49.2248 48.4592C51.3449 48.4592 53.0698 50.184 53.0698 52.3041C53.0698 54.4243 51.3449 56.1491 49.2248 56.1491Z" fill="#051A53"/>
</g>
<defs>
<clipPath id="clip0_2893_2590">
<rect width="80" height="80" fill="white"/>
</clipPath>
</defs>
</svg>
