<svg width="25" height="24" viewBox="0 0 25 24" fill="none" xmlns="http://www.w3.org/2000/svg">
<g clip-path="url(#clip0_2275_241)">
<path fill-rule="evenodd" clip-rule="evenodd" d="M0.5 0V24H24.5V0H0.5ZM20.7997 8.40559C20.73 9.92007 19.6012 11.9786 17.4141 14.5901C15.1603 17.3231 13.2493 18.6931 11.677 18.7001C10.6996 18.7001 9.88659 17.8641 9.23595 16.1902L8.55145 13.8936L7.87792 11.601C7.37977 9.93901 6.84665 9.11003 6.27878 9.11003C6.15424 9.11003 5.72182 9.35214 4.98251 9.83436L4.19231 8.89983L5.41784 7.8845L6.62148 6.88014C7.69953 6.0163 8.52054 5.54505 9.0805 5.47928C9.15825 5.47131 9.23294 5.46731 9.31069 5.46731C10.4625 5.46731 11.1869 6.29633 11.4668 7.95824C11.6262 8.90379 11.7587 9.67495 11.8634 10.2668C11.965 10.8577 12.0507 11.2701 12.1204 11.5083C12.5021 13.0765 12.9145 13.8667 13.3539 13.8747C13.6967 13.8747 14.2178 13.3606 14.9232 12.3373C15.6157 11.2861 15.9853 10.508 16.0362 10.0018C16.0471 9.89623 16.0551 9.80355 16.0551 9.71383C16.0551 9.02437 15.6775 8.68262 14.9233 8.68262C14.5416 8.68262 14.1362 8.76433 13.7007 8.92378C14.4789 6.51455 15.9814 5.30796 18.2033 5.29999H18.3907C19.9978 5.34282 20.7998 6.2535 20.8078 8.04C20.8077 8.15647 20.8037 8.28106 20.7997 8.40559Z" fill="#D71920"/>
</g>
<defs>
<clipPath id="clip0_2275_241">
<rect width="24" height="24" fill="white" transform="translate(0.5)"/>
</clipPath>
</defs>
</svg>
