<svg width="25" height="24" viewBox="0 0 25 24" fill="none" xmlns="http://www.w3.org/2000/svg">
<g clip-path="url(#clip0_2275_243)">
<path fill-rule="evenodd" clip-rule="evenodd" d="M0.5 0V24H24.5V0H0.5ZM9.02828 18.0755C5.64333 18.0755 2.95275 15.3849 2.95275 12C2.95275 8.6151 5.64333 5.92447 9.02828 5.92447C10.6774 5.92447 12.066 6.53201 13.1075 7.57356L11.4585 9.13582C11.0245 8.70187 10.2434 8.1811 9.02823 8.1811C6.94524 8.1811 5.29615 9.91696 5.29615 12C5.29615 14.083 6.94524 15.8189 9.02823 15.8189C11.4585 15.8189 12.3264 14.083 12.4999 13.2151H9.02823V11.132H14.7566C14.8434 11.4792 14.8434 11.7396 14.8434 12.1736C14.8435 15.6453 12.5 18.0755 9.02828 18.0755ZM22.0473 12.868H20.3114V14.6038H18.5755V12.868H16.8396V11.1321H18.5755V9.39624H20.3114V11.1321H22.0473V12.868Z" fill="#D71920"/>
</g>
<defs>
<clipPath id="clip0_2275_243">
<rect width="24" height="24" fill="white" transform="translate(0.5)"/>
</clipPath>
</defs>
</svg>
