<svg width="25" height="24" viewBox="0 0 25 24" fill="none" xmlns="http://www.w3.org/2000/svg">
<g clip-path="url(#clip0_2275_228)">
<path fill-rule="evenodd" clip-rule="evenodd" d="M16.6159 5.50098H8.38426C7.07052 5.50098 6.00146 6.56997 6.00146 7.88377V16.1154C6.00146 17.4294 7.07052 18.4984 8.38426 18.4984H16.6159C17.9299 18.4984 18.9989 17.4294 18.9989 16.1154V7.88377C18.9989 6.57003 17.9299 5.50098 16.6159 5.50098ZM12.4999 16.2783C10.1409 16.2783 8.22133 14.3588 8.22133 11.9994C8.22133 9.64038 10.1409 7.72084 12.4999 7.72084C14.8592 7.72084 16.7788 9.64038 16.7788 11.9994C16.7788 14.3588 14.8592 16.2783 12.4999 16.2783ZM16.9165 8.60561C16.3579 8.60561 15.9038 8.15146 15.9038 7.59326C15.9038 7.035 16.3579 6.58084 16.9165 6.58084C17.4747 6.58084 17.9288 7.035 17.9288 7.59326C17.9288 8.15153 17.4747 8.60561 16.9165 8.60561Z" fill="#D71920"/>
<path fill-rule="evenodd" clip-rule="evenodd" d="M12.4997 9.5293C11.1378 9.5293 10.0288 10.6378 10.0288 11.9996C10.0288 13.362 11.1378 14.4708 12.4997 14.4708C13.8621 14.4708 14.9703 13.362 14.9703 11.9996C14.9703 10.6378 13.8621 9.5293 12.4997 9.5293Z" fill="#D71920"/>
<path fill-rule="evenodd" clip-rule="evenodd" d="M0.5 0V24H24.5V0H0.5ZM20.8066 16.1158C20.8066 18.427 18.927 20.3066 16.6159 20.3066H8.3842C6.07328 20.3066 4.19336 18.427 4.19336 16.1158V7.8842C4.19336 5.57328 6.07328 3.69336 8.3842 3.69336H16.6159C18.927 3.69336 20.8066 5.57328 20.8066 7.8842V16.1158Z" fill="#D71920"/>
</g>
<defs>
<clipPath id="clip0_2275_228">
<rect width="24" height="24" fill="white" transform="translate(0.5)"/>
</clipPath>
</defs>
</svg>
