<svg width="25" height="24" viewBox="0 0 25 24" fill="none" xmlns="http://www.w3.org/2000/svg">
<g clip-path="url(#clip0_2275_237)">
<path fill-rule="evenodd" clip-rule="evenodd" d="M13.4969 10.7792V10.7441C13.4898 10.7559 13.4799 10.7677 13.4736 10.7792H13.4969Z" fill="#D71920"/>
<path fill-rule="evenodd" clip-rule="evenodd" d="M0.5 0V24H24.5V0H0.5ZM7.9649 19.9386H4.40414V9.22581H7.9649V19.9386ZM6.18452 7.76366H6.16099C4.96653 7.76366 4.19231 6.94075 4.19231 5.91218C4.19231 4.86103 4.98916 4.06143 6.20783 4.06143C7.42677 4.06143 8.17583 4.86103 8.19915 5.91218C8.19915 6.94075 7.42677 7.76366 6.18452 7.76366ZM20.8077 19.9386H17.246V14.2072C17.246 12.7677 16.7314 11.7851 15.4423 11.7851C14.4578 11.7851 13.8728 12.4467 13.6151 13.0875C13.5214 13.3165 13.4969 13.6347 13.4969 13.9557V19.9386H9.93453C9.93453 19.9386 9.98227 10.2309 9.93453 9.22586H13.4969V10.7439C13.9702 10.0156 14.8149 8.97437 16.7069 8.97437C19.0508 8.97437 20.8077 10.5051 20.8077 13.7954V19.9386Z" fill="#D71920"/>
</g>
<defs>
<clipPath id="clip0_2275_237">
<rect width="24" height="24" fill="white" transform="translate(0.5)"/>
</clipPath>
</defs>
</svg>
