<svg width="25" height="24" viewBox="0 0 25 24" fill="none" xmlns="http://www.w3.org/2000/svg">
<g clip-path="url(#clip0_2275_233)">
<path fill-rule="evenodd" clip-rule="evenodd" d="M0.5 0V24H24.5V0H0.5ZM20.5172 15.9276C20.3136 16.8111 19.5908 17.4635 18.7208 17.5607C16.6613 17.7903 14.5762 17.7918 12.4992 17.7903C10.423 17.7918 8.33782 17.7903 6.27772 17.5607C5.4075 17.4636 4.68481 16.8111 4.48221 15.9276C4.19231 14.6697 4.19231 13.2955 4.19231 11.9999C4.19231 10.7044 4.19574 9.33078 4.48537 8.07291C4.68797 7.18855 5.41093 6.53702 6.28004 6.43991C8.34035 6.20967 10.4264 6.20877 12.5026 6.20967C14.5786 6.20883 16.6639 6.20967 18.724 6.43991C19.5942 6.53702 20.3169 7.18855 20.5204 8.07291C20.8103 9.33078 20.8077 10.7044 20.8077 11.9999C20.8077 13.2955 20.8068 14.6697 20.5172 15.9276Z" fill="#D71920"/>
<path fill-rule="evenodd" clip-rule="evenodd" d="M10.356 14.5786C12.1212 13.6632 13.8709 12.7554 15.638 11.8393C13.8658 10.9147 12.1163 10.0026 10.356 9.08398V14.5786Z" fill="#D71920"/>
</g>
<defs>
<clipPath id="clip0_2275_233">
<rect width="24" height="24" fill="white" transform="translate(0.5)"/>
</clipPath>
</defs>
</svg>
