<svg width="112" height="112" viewBox="0 0 112 112" fill="none" xmlns="http://www.w3.org/2000/svg">
<path d="M111.225 62.1455C110.605 61.2987 109.712 60.745 108.706 60.5673V57.1741C108.706 55.0644 107.044 53.3409 104.96 53.2306V43.9398C105.765 43.8347 106.386 43.1477 106.386 42.3145C106.386 38.248 103.077 34.9403 99.0107 34.9403H93.5915V30.7285H97.4786C98.3843 30.7285 99.1192 29.9936 99.1192 29.0879C99.1192 28.1813 98.3843 27.4472 97.4786 27.4472H93.5915V25.4238H95.1133C96.0199 25.4238 96.754 24.6898 96.754 23.7832C96.754 22.8774 96.0199 22.1426 95.1133 22.1426H93.5915V20.672C93.5915 19.7662 92.8575 19.0314 91.9509 19.0314C91.0443 19.0314 90.3102 19.7662 90.3102 20.672V22.1426H88.7884C87.8818 22.1426 87.1478 22.8774 87.1478 23.7832C87.1478 24.6898 87.8818 25.4238 88.7884 25.4238H90.3102V27.4472H86.4232C85.5174 27.4472 84.7825 28.1813 84.7825 29.0879C84.7825 29.9936 85.5174 30.7285 86.4232 30.7285H90.3102V34.9394H84.8911C80.8237 34.9394 77.516 38.248 77.516 42.3145C77.516 43.1477 78.1372 43.8338 78.9412 43.9398V53.2306C76.858 53.3409 75.196 55.0644 75.196 57.1741V60.8031C74.0125 61.2466 73.0376 62.1601 72.5317 63.3751L70.0075 69.4284C69.9067 69.671 69.7409 69.8718 69.5367 70.018V55.2276C69.5367 53.7715 68.3524 52.5872 66.8955 52.5872H57.1141V44.2098C57.1141 42.7537 55.929 41.5686 54.4729 41.5686H50.1518C49.2451 41.5686 48.5111 42.3034 48.5111 43.2092C48.5111 44.1158 49.2451 44.8498 50.1518 44.8498H53.8329V52.5872H44.6907V32.6913C44.6907 31.2352 43.5064 30.05 42.0495 30.05H31.6281C30.1712 30.05 28.9869 31.2352 28.9869 32.6913V41.5677H19.2047C17.7478 41.5677 16.5634 42.7529 16.5634 44.2089V60.5058H3.72472C2.71984 60.5058 1.76452 60.9903 1.1698 61.8012C0.575072 62.6121 0.400756 63.6682 0.703246 64.6278L3.72045 74.1725C3.94176 74.8715 4.58776 75.3192 5.28417 75.3192C5.44823 75.3192 5.61486 75.2944 5.77977 75.2423C6.64366 74.9689 7.12218 74.0469 6.8496 73.183L3.87939 63.787H19.7327C20.3172 63.787 20.8419 64.157 21.0376 64.7082L23.0721 70.4529C23.7301 72.3123 25.498 73.5607 27.4693 73.5607H68.7301C70.6211 73.5607 72.3121 72.4327 73.0367 70.6887L75.56 64.6372C75.7754 64.1203 76.2761 63.7862 76.8358 63.7862H94.2298C95.1364 63.7862 95.8704 63.0522 95.8704 62.1455C95.8704 61.2398 95.1364 60.5058 94.2298 60.5058H78.4773V57.1741C78.4773 56.8033 78.7797 56.5016 79.1506 56.5016H104.752C105.123 56.5016 105.425 56.8033 105.425 57.1741V60.5058H101.76C100.854 60.5058 100.119 61.2406 100.119 62.1464C100.119 63.0522 100.854 63.787 101.76 63.787H107.996C108.313 63.787 108.496 63.9724 108.577 64.0827C108.657 64.192 108.777 64.4219 108.682 64.7235L104.019 79.3832C103.859 79.889 103.651 80.3906 103.4 80.8726C103.363 80.9443 103.333 81.0178 103.307 81.0922C102.835 81.3545 102.312 81.5074 101.537 81.5074C100.186 81.5074 99.5994 81.0434 98.7116 80.3419C97.6563 79.5071 96.3421 78.468 93.8504 78.468C91.3587 78.468 90.0453 79.5071 88.9901 80.3419C88.1031 81.0434 87.5169 81.5074 86.166 81.5074C84.815 81.5074 84.2288 81.0443 83.3419 80.3419C82.2866 79.5071 80.9724 78.468 78.4807 78.468C75.989 78.468 74.6756 79.5071 73.6203 80.3419C72.7334 81.0434 72.1472 81.5074 70.7962 81.5074C69.4461 81.5074 68.8591 81.0443 67.9722 80.3419C66.9169 79.5071 65.6035 78.468 63.1118 78.468C60.6201 78.468 59.3076 79.5071 58.2523 80.3419C57.3645 81.0434 56.7792 81.5074 55.4282 81.5074C54.0781 81.5074 53.492 81.0443 52.605 80.3419C51.5497 79.5071 50.2363 78.468 47.7455 78.468C45.253 78.468 43.9396 79.5071 42.8852 80.3419C41.9973 81.0434 41.4112 81.5074 40.0602 81.5074C38.7101 81.5074 38.1239 81.0443 37.2361 80.3419C36.1808 79.5071 34.8675 78.468 32.3766 78.468C29.8849 78.468 28.5716 79.5071 27.5163 80.3419C26.6285 81.0443 26.0423 81.5074 24.6922 81.5074C23.3413 81.5074 22.7551 81.0443 21.8681 80.3419C20.8128 79.5071 19.4995 78.468 17.0086 78.468C14.5169 78.468 13.2036 79.5071 12.1483 80.3419C11.2613 81.0434 10.6751 81.5074 9.32505 81.5074C7.9741 81.5074 7.38792 81.0443 6.50096 80.3419C5.44567 79.5071 4.13232 78.468 1.64062 78.468C0.734862 78.468 0 79.2029 0 80.1086C0 81.0153 0.734862 81.7493 1.64062 81.7493C2.99157 81.7493 3.57775 82.2132 4.46471 82.9156C5.52001 83.7505 6.83336 84.7887 9.32505 84.7887C11.8159 84.7887 13.1292 83.7496 14.1845 82.9148C15.0724 82.2132 15.6577 81.7493 17.0086 81.7493C18.3587 81.7493 18.9449 82.2132 19.8327 82.9156C20.8872 83.7505 22.2005 84.7887 24.6922 84.7887C27.1839 84.7887 28.4964 83.7505 29.5517 82.9156C30.4395 82.2132 31.0257 81.7493 32.3766 81.7493C33.7267 81.7493 34.3129 82.2132 35.2007 82.9156C36.256 83.7505 37.5694 84.7887 40.0602 84.7887C42.5519 84.7887 43.8653 83.7505 44.9206 82.9156C45.8084 82.2132 46.3946 81.7493 47.7455 81.7493C49.0956 81.7493 49.6818 82.2132 50.5687 82.9148C51.624 83.7496 52.9374 84.7887 55.4282 84.7887C57.9199 84.7887 59.2333 83.7496 60.2886 82.9148C61.1755 82.2132 61.7617 81.7493 63.1118 81.7493C64.4628 81.7493 65.0489 82.2132 65.9359 82.9156C66.9912 83.7505 68.3046 84.7887 70.7962 84.7887C73.2879 84.7887 74.6013 83.7505 75.6566 82.9156C76.5444 82.2132 77.1306 81.7493 78.4807 81.7493C79.8316 81.7493 80.4178 82.2132 81.3056 82.9156C82.3609 83.7505 83.6743 84.7887 86.166 84.7887C88.6577 84.7887 89.971 83.7505 91.0263 82.9156C91.9141 82.2132 92.5003 81.7493 93.8504 81.7493C95.2013 81.7493 95.7875 82.2132 96.6762 82.9156C97.7306 83.7505 99.0448 84.7887 101.537 84.7887C104.028 84.7887 105.342 83.7505 106.397 82.9156C107.285 82.2132 107.871 81.7493 109.223 81.7493C110.128 81.7493 110.863 81.0153 110.863 80.1086C110.863 79.2029 110.128 78.468 109.223 78.468C108.66 78.468 108.16 78.5236 107.706 78.615L111.808 65.7182C112.199 64.4886 111.986 63.1872 111.225 62.1455ZM41.4095 63.605H32.2681V55.8676H41.4095V63.605ZM32.2681 66.8863H41.4095V70.2794H32.2681V66.8863ZM44.6907 66.8863H53.832V70.2794H44.6907V66.8863ZM57.1133 66.8863H66.2555V70.2794H57.1133V66.8863ZM53.832 63.605H44.6907V55.8676H53.832V63.605ZM32.2681 52.5872V44.8498H41.4095V52.5872H32.2681ZM66.2555 63.605H57.1133V55.8676H66.2555V63.605ZM41.4095 33.3313V41.5686H32.2681V33.3313H41.4095ZM28.986 44.8489V52.5872H19.8447V44.8489H28.986ZM19.8447 60.51V55.8676H28.986V63.6042H24.1257C23.4771 61.7858 21.7673 60.5562 19.8447 60.51ZM27.4693 70.2794C26.884 70.2794 26.3602 69.9094 26.1645 69.3583L25.2886 66.8854H28.9852V70.2794H27.4693ZM84.8902 38.2207H99.0107C100.685 38.2207 102.128 39.2315 102.762 40.6739H81.1398C81.7739 39.2315 83.2163 38.2207 84.8902 38.2207ZM82.2225 53.2204V43.9551H101.679V53.2204H82.2225Z" fill="#051A53"/>
<path d="M86.3594 45.6572C85.4528 45.6572 84.7188 46.3921 84.7188 47.2978V49.8776C84.7188 50.7833 85.4528 51.5182 86.3594 51.5182C87.2651 51.5182 88 50.7833 88 49.8776V47.2978C88 46.3921 87.2651 45.6572 86.3594 45.6572Z" fill="#051A53"/>
<path d="M91.7266 45.6572C90.8199 45.6572 90.0859 46.3921 90.0859 47.2978V49.8776C90.0859 50.7833 90.8199 51.5182 91.7266 51.5182C92.6323 51.5182 93.3672 50.7833 93.3672 49.8776V47.2978C93.3672 46.3921 92.6323 45.6572 91.7266 45.6572Z" fill="#051A53"/>
<path d="M97.2187 45.6572C96.3121 45.6572 95.5781 46.3921 95.5781 47.2978V49.8776C95.5781 50.7833 96.3121 51.5182 97.2187 51.5182C98.1245 51.5182 98.8594 50.7833 98.8594 49.8776V47.2978C98.8594 46.3921 98.1245 45.6572 97.2187 45.6572Z" fill="#051A53"/>
<path d="M109.222 86.7411C106.73 86.7411 105.417 87.7801 104.361 88.615C103.474 89.3165 102.887 89.7805 101.537 89.7805C100.185 89.7805 99.5986 89.3165 98.7107 88.615C97.6554 87.7801 96.3421 86.7411 93.8504 86.7411C91.3587 86.7411 90.0454 87.7801 88.9901 88.615C88.1031 89.3165 87.5169 89.7805 86.166 89.7805C84.815 89.7805 84.2288 89.3174 83.341 88.615C82.2857 87.7801 80.9724 86.7411 78.4807 86.7411C75.989 86.7411 74.6756 87.7801 73.6203 88.615C72.7334 89.3165 72.1472 89.7805 70.7962 89.7805C69.4453 89.7805 68.8591 89.3174 67.9722 88.615C66.9169 87.7801 65.6035 86.7411 63.1118 86.7411C60.6201 86.7411 59.3068 87.7801 58.2523 88.615C57.3645 89.3165 56.7783 89.7805 55.4282 89.7805C54.0781 89.7805 53.492 89.3174 52.6041 88.615C51.5497 87.7801 50.2364 86.7411 47.7447 86.7411C45.253 86.7411 43.9396 87.7801 42.8843 88.615C41.9974 89.3165 41.4112 89.7805 40.0602 89.7805C38.7093 89.7805 38.1239 89.3174 37.2361 88.615C36.1808 87.7801 34.8675 86.7411 32.3758 86.7411C29.8841 86.7411 28.5716 87.7801 27.5163 88.615C26.6285 89.3174 26.0423 89.7805 24.6922 89.7805C23.3413 89.7805 22.7551 89.3174 21.8681 88.615C20.8128 87.7801 19.4995 86.7411 17.0078 86.7411C14.5169 86.7411 13.2036 87.7801 12.1483 88.615C11.2613 89.3165 10.6751 89.7805 9.3242 89.7805C7.97411 89.7805 7.38793 89.3174 6.50011 88.615C5.44481 87.7801 4.13232 86.7411 1.64062 86.7411C0.734007 86.7411 0 87.476 0 88.3817C0 89.2883 0.734007 90.0223 1.64062 90.0223C2.99072 90.0223 3.57775 90.4863 4.46471 91.1887C5.52001 92.0235 6.83336 93.0618 9.3242 93.0618C11.8159 93.0618 13.1292 92.0227 14.1845 91.1879C15.0715 90.4863 15.6577 90.0223 17.0078 90.0223C18.3587 90.0223 18.9449 90.4863 19.8319 91.1887C20.8872 92.0235 22.2005 93.0618 24.6922 93.0618C27.1831 93.0618 28.4964 92.0235 29.5517 91.1887C30.4395 90.4863 31.0257 90.0223 32.3758 90.0223C33.7267 90.0223 34.3129 90.4863 35.1999 91.1887C36.2552 92.0235 37.5685 93.0618 40.0602 93.0618C42.5519 93.0618 43.8653 92.0235 44.9206 91.1887C45.8075 90.4863 46.3937 90.0223 47.7447 90.0223C49.0956 90.0223 49.6818 90.4863 50.5687 91.1879C51.624 92.0227 52.9365 93.0618 55.4282 93.0618C57.9199 93.0618 59.2333 92.0227 60.2877 91.1879C61.1755 90.4863 61.7617 90.0223 63.1118 90.0223C64.4619 90.0223 65.0481 90.4863 65.9359 91.1887C66.9912 92.0235 68.3046 93.0618 70.7962 93.0618C73.2879 93.0618 74.6013 92.0235 75.6566 91.1887C76.5435 90.4863 77.1297 90.0223 78.4807 90.0223C79.8316 90.0223 80.4178 90.4863 81.3056 91.1887C82.3609 92.0235 83.6743 93.0618 86.166 93.0618C88.6577 93.0618 89.971 92.0235 91.0263 91.1887C91.9133 90.4863 92.4995 90.0223 93.8504 90.0223C95.2013 90.0223 95.7875 90.4863 96.6753 91.1887C97.7306 92.0235 99.044 93.0618 101.537 93.0618C104.028 93.0618 105.342 92.0235 106.397 91.1887C107.285 90.4863 107.871 90.0223 109.222 90.0223C110.128 90.0223 110.862 89.2883 110.862 88.3817C110.862 87.476 110.128 86.7411 109.222 86.7411Z" fill="#051A53"/>
</svg>
