<svg width="112" height="112" viewBox="0 0 112 112" fill="none" xmlns="http://www.w3.org/2000/svg">
<g clip-path="url(#clip0_2893_2624)">
<path d="M56.0198 0.0117193C33.6128 0.00845336 13.3618 13.3647 4.54252 33.963L3.84453 34.1945L4.11514 35.0063C-7.49684 63.6457 6.30638 96.276 34.9458 107.888C41.6348 110.6 48.7852 111.992 56.0033 111.988C86.9247 111.993 111.995 86.9299 112 56.0084C112.005 25.087 86.9415 0.0161518 56.0198 0.0117193ZM99.9364 84.2284L97.0614 81.3553V74.6628C97.0646 74.374 97.0007 74.0885 96.8747 73.8286L89.5963 59.2922V52.2675C89.5963 51.6437 89.2848 51.0609 88.7658 50.7148L83.1669 46.9822C82.7281 46.6892 82.1857 46.5956 81.6739 46.7247L74.8172 48.4379L63.3004 43.496L61.7159 32.3954L66.1073 28.0059H75.5339L78.7065 32.7742C78.993 33.203 79.4444 33.4944 79.9532 33.5786L91.1509 35.4449C91.4509 35.4953 91.7583 35.4708 92.0467 35.374L102.36 31.9363C111.01 48.5356 110.084 68.5004 99.9364 84.2284ZM92.2389 18.402L89.2043 20.4251L80.7445 18.7324L75.2558 16.9053C74.9199 16.7912 74.5583 16.7767 74.2144 16.8642L67.2756 18.598L64.2335 17.5846L66.488 13.0757H72.7998C73.0893 13.0759 73.3748 13.0089 73.634 12.8797L80.0913 9.65104C84.5382 11.9722 88.6291 14.9191 92.2389 18.402ZM35.5619 7.91167L40.041 10.8977C40.2612 11.0442 40.5099 11.1422 40.7707 11.1851L49.8147 12.6931L48.9319 15.3339L44.2196 16.9071C43.7976 17.0476 43.4395 17.334 43.2099 17.7152L37.85 26.6472L29.2408 31.8131L16.5501 33.6252C15.6303 33.7552 14.9463 34.5421 14.9451 35.471V41.0698C14.9451 41.5649 15.142 42.0394 15.492 42.3893L18.6777 45.575V48.7813L10.914 43.6042L8.09778 35.1556C13.4559 22.9128 23.2764 13.1708 35.5619 7.91167ZM30.2486 69.1013L21.8131 67.4123L18.6777 61.1584V56.7727L25.6315 49.8189L28.2051 54.968C28.5212 55.6007 29.1681 56.0003 29.8754 56.0001H41.883L46.9387 64.4263C47.2761 64.9878 47.8831 65.3312 48.5381 65.3314H53.7264L52.42 71.8765L45.3543 78.9422C45.0037 79.2919 44.8063 79.7664 44.8056 80.2617V84.9274L38.087 89.9663C37.6172 90.3188 37.3405 90.8719 37.3405 91.4593V98.2003L35.0188 97.4314L31.7416 89.2347V70.9303C31.7419 70.0433 31.1176 69.2786 30.2486 69.1013ZM24.6386 97.7909C7.04216 84.5896 -0.399387 61.7799 6.02621 40.7414L7.57708 45.3921C7.70772 45.7857 7.96574 46.1246 8.31053 46.3551L17.6139 52.5568L15.492 54.6806C15.142 55.0305 14.9451 55.505 14.9451 56.0001V61.5989C14.9449 61.8884 15.0119 62.1739 15.1411 62.4331L18.8737 69.8982C19.1321 70.4138 19.6143 70.781 20.1801 70.893L28.0184 72.4588V89.5931C28.0182 89.8301 28.0632 90.0652 28.1509 90.2854L31.8835 99.6168C32.0878 100.127 32.5064 100.521 33.0275 100.694L38.6264 102.56C38.8134 102.623 39.0094 102.656 39.2068 102.657C40.2374 102.657 41.073 101.821 41.073 100.791V92.3925L47.7916 87.3535C48.2615 87.001 48.5381 86.4479 48.5381 85.8605V81.0343L55.4564 74.116C55.7166 73.8554 55.8939 73.5235 55.9659 73.1623L57.8322 63.831C58.0342 62.8201 57.3787 61.8371 56.3679 61.635C56.2477 61.611 56.1257 61.5989 56.0033 61.5989H49.5945L44.5387 53.1726C44.2014 52.6111 43.5944 52.2677 42.9393 52.2675H31.0287L27.8225 45.8344C27.554 45.2974 27.0435 44.9223 26.4508 44.8266C25.8582 44.7242 25.2533 44.9197 24.8327 45.3492L22.4103 47.7623V44.8024C22.4103 44.3074 22.2134 43.8329 21.8634 43.4829L18.6777 40.2972V37.0891L30.1404 35.4523C30.3865 35.4166 30.6233 35.3322 30.8365 35.2041L40.1679 29.6053C40.4296 29.4481 40.6489 29.2288 40.8062 28.967L46.0504 20.2272L50.9942 18.5775C51.5524 18.3943 51.9905 17.9564 52.1737 17.398L54.0399 11.7991C54.3633 10.8205 53.8321 9.76489 52.8535 9.44155C52.7632 9.41169 52.6706 9.38883 52.5768 9.37297L41.7748 7.57201L39.8768 6.30667C51.621 2.48407 64.3411 2.95717 75.769 7.64106L72.3593 9.34311H65.3346C64.6238 9.33914 63.9727 9.73946 63.655 10.3752L59.9224 17.8403C59.4626 18.7627 59.8375 19.8834 60.7599 20.3432C60.8386 20.3824 60.9197 20.416 61.003 20.4437L66.6019 22.31C66.9378 22.4241 67.2994 22.4385 67.6432 22.3511L74.5821 20.6173L79.6658 22.31C79.7386 22.3361 79.8135 22.3562 79.8897 22.3697L89.2211 24.236C89.7064 24.3349 90.2112 24.2355 90.6227 23.9598L94.8704 21.1268C96.9608 23.4552 98.8395 25.9653 100.484 28.6274L91.302 31.6881L81.3604 30.0308L78.0757 25.1038C77.7314 24.5876 77.1528 24.2764 76.5323 24.2733H65.3346C64.8396 24.2733 64.3651 24.4702 64.0152 24.8202L58.4164 30.419C58.0006 30.8345 57.8049 31.4216 57.8882 32.0035L59.7545 45.0674C59.8485 45.7134 60.2731 46.2632 60.8742 46.5175L73.9382 52.1163C74.3124 52.2785 74.73 52.3118 75.1251 52.2115L81.7896 50.5449L85.8637 53.266V59.7326C85.8604 60.0214 85.9244 60.307 86.0503 60.5668L93.3288 75.1033V82.1279C93.3288 82.623 93.5257 83.0975 93.8756 83.4474L97.7799 87.3535C80.4648 110.433 47.7182 115.106 24.6386 97.7909Z" fill="#051A53"/>
</g>
<defs>
<clipPath id="clip0_2893_2624">
<rect width="112" height="112" fill="white"/>
</clipPath>
</defs>
</svg>
