<svg width="660" height="154" viewBox="0 0 660 154" fill="none" xmlns="http://www.w3.org/2000/svg">
<path d="M650.104 54.9975C650.104 53.3472 648.731 52.2471 646.535 52.2471H641.73V61.0484H643.652V57.7479H645.574L648.045 61.0484H650.241L647.496 57.5279C648.868 57.3078 650.104 56.5377 650.104 54.8875V54.9975ZM643.515 56.4277V53.6773H646.123C647.221 53.6773 648.045 54.2274 648.045 55.1075C648.045 55.9876 647.221 56.5377 646.123 56.5377H643.515V56.4277Z" fill="#D71920"/>
<path d="M645.437 48.0664C639.26 48.0664 634.73 51.697 634.73 56.6477C634.73 61.5985 639.26 65.2291 645.437 65.2291C651.614 65.2291 656.144 61.5985 656.144 56.6477C656.144 51.697 651.614 48.0664 645.437 48.0664ZM645.437 63.5788C640.496 63.5788 636.927 60.6083 636.927 56.6477C636.927 52.6871 640.496 49.7167 645.437 49.7167C650.379 49.7167 653.948 52.6871 653.948 56.6477C653.948 60.6083 650.379 63.5788 645.437 63.5788Z" fill="#D71920"/>
<path d="M376.809 106.375H411.537L411.4 97.9041H390.124V79.6413H408.929V72.7102H390.124V56.5377H411.537V48.0664H376.809V106.375Z" fill="#D71920"/>
<path d="M270.284 48.0664H256.969V106.265H270.284V48.0664Z" fill="#D71920"/>
<path d="M313.525 82.7218L295.543 48.0664H279.895V106.375H292.66L292.935 69.9598L311.054 106.375H326.566V48.0664H313.663L313.525 82.7218Z" fill="#D71920"/>
<path d="M333.566 56.5377H344.96V106.375H358.275V56.5377H369.805V48.0664H333.566V56.5377Z" fill="#D71920"/>
<path d="M459.719 69.5197C460.68 67.7594 461.229 65.009 461.229 61.2684C461.229 57.5279 459.719 52.9072 456.699 51.0369C453.542 49.0566 448.326 48.0664 440.913 48.0664H419.637V106.265H432.952V79.6413H438.442C441.462 79.6413 443.796 80.1914 445.169 81.4016C446.541 82.6117 447.365 84.262 447.365 86.4623V106.265H460.68V85.4722C460.68 77.551 454.64 75.9007 452.032 75.4606C455.876 74.4705 458.209 71.39 459.444 69.4097L459.719 69.5197ZM447.777 67.2094L447.09 69.4097V69.6297C445.992 71.06 443.933 72.6002 439.678 72.6002H433.226V54.9975H438.854C442.835 54.9975 445.443 55.8776 446.816 57.6379V57.7479C447.502 58.9581 447.914 60.8284 447.914 63.5788V67.0993L447.777 67.2094Z" fill="#D71920"/>
<path d="M483.46 48.0664H470.008V106.375H502.266V97.9041H483.46V48.0664Z" fill="#D71920"/>
<path d="M521.897 48.0664H508.582V106.265H521.897V48.0664Z" fill="#D71920"/>
<path d="M565.135 82.7218L547.152 48.0664H531.504V106.375H544.27L544.544 69.9598L562.664 106.375H578.175V48.0664H565.272L565.135 82.7218Z" fill="#D71920"/>
<path d="M630.89 48.0664H617.163L599.867 72.7102V48.0664H587.102V106.375H599.867V75.3506L619.771 106.375H633.773L612.633 73.9204L630.89 48.0664Z" fill="#D71920"/>
<path d="M256.969 132.119V117.927H264.793C268.499 117.927 270.558 120.017 270.558 122.327C270.558 124.638 268.499 126.728 264.793 126.728H260.126V132.009H256.969V132.119ZM267.401 122.437C267.401 121.117 266.166 120.127 264.381 120.127H260.126V124.638H264.381C266.166 124.638 267.401 123.758 267.401 122.437Z" fill="#D71920"/>
<path d="M285.521 132.119L284.286 129.369H276.187L274.952 132.119H271.383L278.383 117.927H282.227L289.228 132.119H285.659H285.521ZM280.168 120.457L277.011 127.168H283.325L280.168 120.457Z" fill="#D71920"/>
<path d="M303.088 132.118L299.107 126.837H296.087V132.118H292.93V117.926H300.754C304.323 117.926 306.519 119.796 306.519 122.326C306.519 124.857 304.46 126.177 302.264 126.507L306.657 132.118H303.088ZM303.362 122.436C303.362 121.116 302.127 120.126 300.342 120.126H296.087V124.637H300.342C302.127 124.637 303.362 123.757 303.362 122.436Z" fill="#D71920"/>
<path d="M315.584 132.118V120.126H310.23V117.926H324.095V120.126H318.741V132.118H315.584Z" fill="#D71920"/>
<path d="M340.975 132.119L331.778 121.997V132.119H328.621V117.927H331.778L340.838 127.828V117.927H343.995V132.119H340.975Z" fill="#D71920"/>
<path d="M349.758 132.118V117.926H361.837V120.126H352.778V123.757H361.563V125.957H352.778V129.918H361.837V132.118H349.758Z" fill="#D71920"/>
<path d="M377.22 132.118L373.24 126.837H370.22V132.118H367.062V117.926H374.887C378.456 117.926 380.652 119.796 380.652 122.326C380.652 124.857 378.593 126.177 376.397 126.507L380.789 132.118H377.22ZM377.495 122.436C377.495 121.116 376.26 120.126 374.475 120.126H370.22V124.637H374.475C376.26 124.637 377.495 123.757 377.495 122.436Z" fill="#D71920"/>
<path d="M384.629 130.138L386.413 128.268C387.649 129.258 389.571 130.248 392.041 130.248C394.512 130.248 395.61 129.258 395.61 128.268C395.61 125.298 385.315 127.168 385.315 121.887C385.315 116.606 387.923 117.706 391.767 117.706C395.61 117.706 396.709 118.367 398.356 119.687L396.571 121.557C395.199 120.457 393.277 119.907 391.492 119.907C389.708 119.907 388.472 120.567 388.472 121.667C388.472 124.308 398.768 122.657 398.768 127.938C398.768 133.219 396.708 132.339 391.904 132.339C387.1 132.339 386.276 131.459 384.766 130.028L384.629 130.138Z" fill="#D71920"/>
<path d="M415.921 132.118V125.957H406.724V132.118H403.566V117.926H406.724V123.757H415.921V117.926H419.078V132.118H415.921Z" fill="#D71920"/>
<path d="M424.715 132.118V117.926H427.872V132.118H424.715Z" fill="#D71920"/>
<path d="M433.637 132.118V117.926H441.461C445.167 117.926 447.226 120.016 447.226 122.326C447.226 124.637 445.167 126.727 441.461 126.727H436.794V132.008H433.637V132.118ZM443.932 122.436C443.932 121.116 442.696 120.126 440.912 120.126H436.657V124.637H440.912C442.696 124.637 443.932 123.757 443.932 122.436Z" fill="#D71920"/>
<path d="M464.795 132.119V120.127H459.441V117.927H473.306V120.127H467.952V132.119H464.795Z" fill="#D71920"/>
<path d="M476.465 125.077C476.465 120.897 480.171 117.706 485.525 117.706C490.878 117.706 494.584 120.787 494.584 125.077C494.584 129.368 490.878 132.448 485.525 132.448C480.171 132.448 476.465 129.368 476.465 125.077ZM491.29 125.077C491.29 122.107 488.956 119.906 485.387 119.906C481.818 119.906 479.485 122.107 479.485 125.077C479.485 128.048 481.818 130.248 485.387 130.248C488.956 130.248 491.29 128.048 491.29 125.077Z" fill="#D71920"/>
<path d="M507.215 130.138L508.999 128.268C510.235 129.258 512.156 130.248 514.627 130.248C517.098 130.248 518.196 129.258 518.196 128.268C518.196 125.298 507.901 127.168 507.901 121.887C507.901 116.606 510.509 117.706 514.353 117.706C518.196 117.706 519.294 118.367 520.942 119.687L519.157 121.557C517.785 120.457 515.863 119.907 514.078 119.907C512.294 119.907 511.058 120.567 511.058 121.667C511.058 124.308 521.353 122.657 521.353 127.938C521.353 133.219 519.294 132.339 514.49 132.339C509.686 132.339 508.862 131.459 507.352 130.028L507.215 130.138Z" fill="#D71920"/>
<path d="M526.148 126.507V117.926H529.306V126.397C529.306 128.597 530.816 130.138 533.835 130.138C536.855 130.138 538.365 128.707 538.365 126.397V117.926H541.522V126.507C541.522 130.028 539.052 132.338 533.835 132.338C528.619 132.338 526.148 130.028 526.148 126.507Z" fill="#D71920"/>
<path d="M546.328 125.078C546.328 120.677 550.446 117.707 555.662 117.707C560.879 117.707 561.428 119.247 562.8 120.897L560.192 121.997C559.369 120.787 557.584 119.907 555.8 119.907C552.231 119.907 549.76 122.107 549.76 125.078C549.76 128.048 552.368 130.248 555.8 130.248C559.231 130.248 559.369 129.368 560.192 128.158L562.8 129.258C561.428 130.909 559.231 132.449 555.662 132.449C550.446 132.449 546.328 129.478 546.328 125.078Z" fill="#D71920"/>
<path d="M566.512 125.077C566.512 120.677 570.63 117.706 575.846 117.706C581.062 117.706 581.611 119.246 582.984 120.897L580.376 121.997C579.552 120.787 577.768 119.906 575.983 119.906C572.414 119.906 569.943 122.107 569.943 125.077C569.943 128.048 572.552 130.248 575.983 130.248C579.415 130.248 579.552 129.368 580.376 128.158L582.984 129.258C581.611 130.908 579.415 132.448 575.846 132.448C570.63 132.448 566.512 129.478 566.512 125.077Z" fill="#D71920"/>
<path d="M587.367 132.118V117.926H599.447V120.126H590.387V123.757H599.172V125.957H590.387V129.918H599.447V132.118H587.367Z" fill="#D71920"/>
<path d="M603.57 130.138L605.355 128.268C606.59 129.258 608.512 130.248 610.983 130.248C613.454 130.248 614.552 129.258 614.552 128.268C614.552 125.298 604.257 127.168 604.257 121.887C604.257 116.606 606.865 117.706 610.708 117.706C614.552 117.706 615.65 118.367 617.297 119.687L615.513 121.557C614.14 120.457 612.218 119.907 610.434 119.907C608.649 119.907 607.414 120.567 607.414 121.667C607.414 124.308 617.709 122.657 617.709 127.938C617.709 133.219 615.65 132.339 610.846 132.339C606.041 132.339 605.218 131.459 603.708 130.028L603.57 130.138Z" fill="#D71920"/>
<path d="M621.273 130.138L623.058 128.268C624.293 129.258 626.215 130.248 628.686 130.248C631.157 130.248 632.255 129.258 632.255 128.268C632.255 125.298 621.96 127.168 621.96 121.887C621.96 116.606 624.568 117.706 628.411 117.706C632.255 117.706 633.353 118.367 635 119.687L633.216 121.557C631.843 120.457 629.921 119.907 628.137 119.907C626.352 119.907 625.117 120.567 625.117 121.667C625.117 124.308 635.412 122.657 635.412 127.938C635.412 133.219 633.353 132.339 628.549 132.339C623.744 132.339 622.921 131.459 621.411 130.028L621.273 130.138Z" fill="#D71920"/>
<path d="M109.964 117.927C168.566 117.927 216.072 99.7019 216.072 77.2204C216.072 54.739 168.566 36.5142 109.964 36.5142C51.3618 36.5142 3.85547 54.739 3.85547 77.2204C3.85547 99.7019 51.3618 117.927 109.964 117.927Z" fill="#005C9A"/>
<path d="M76.464 151.372C55.7365 151.372 42.2842 147.081 36.2444 138.61C30.4792 130.359 32.6754 119.357 42.8333 105.825L93.897 38.0544C97.1915 33.6537 96.9169 27.9328 93.0734 23.9722C91.2889 22.2119 88.6808 20.3416 85.7982 18.4714L73.1695 10.1101L89.2299 7.57967C103.094 5.37933 114.487 3.94911 122.998 3.28901C129.312 2.84894 135.215 2.62891 140.568 2.62891C163.355 2.62891 177.493 6.91957 183.67 15.6109C189.436 23.7522 187.239 34.3138 177.082 47.7359L125.743 115.946C122.174 120.677 122.861 126.728 127.39 130.799C128.351 131.679 129.861 132.559 131.371 133.549C131.92 133.879 132.469 134.209 133.018 134.539L145.784 142.57L129.861 145.431C118.056 147.631 107.349 149.061 96.0933 150.272C88.9554 150.932 82.2292 151.372 76.3267 151.372H76.464Z" fill="#005C9A"/>
<path d="M170.64 44.3255L119.301 112.536C113.948 119.577 114.909 128.598 121.772 134.759C123.694 136.41 125.616 137.95 128.361 139.27C115.458 141.58 105.025 143.011 95.4166 144.001C51.7653 148.292 26.7825 139.27 49.7063 108.905L100.77 41.135C105.712 34.534 105.3 26.1727 99.3974 20.0117C97.0639 17.5913 93.9067 15.501 90.8868 13.5207C102.143 11.7604 114.222 10.0002 123.968 9.34007C167.894 6.03956 193.563 14.0708 170.64 44.4355V44.3255Z" fill="#D71920"/>
</svg>
